<svg width="24" height="24" viewBox="0 0 24 24" fill="none" xmlns="http://www.w3.org/2000/svg">
<g id="ads">
<path id="Vector" d="M12.4839 16.7235L11.7299 16.2788L8.62565 14.4479H3.94174H3.94079V13.9479L12.4839 16.7235ZM12.4839 16.7235V15.8482V9.24534V8.36996L11.7299 8.81467L8.62565 10.6456M12.4839 16.7235L8.62565 10.6456M8.62565 10.6456H3.94079C3.59769 10.6456 3.30616 10.7967 3.07709 11.0282C2.84766 11.26 2.70061 11.5526 2.70173 11.8944M8.62565 10.6456L2.70173 11.8944M2.70173 11.8944V11.8935H3.20173L2.70173 11.8957C2.70173 11.8952 2.70173 11.8948 2.70173 11.8944ZM8.68113 10.3604L12.6857 7.96464V17.1289L8.68113 14.7331L8.56258 14.6621H8.42443H6.39111H5.89111V15.1621V19.2858H5.68938V15.1621V14.6621H5.18938H3.94199C3.53789 14.6621 3.20739 14.5245 2.92222 14.2369C2.63731 13.9497 2.49939 13.6143 2.5 13.2019V13.2012V11.8935C2.5 11.4805 2.63821 11.1441 2.92296 10.8558C3.20709 10.5681 3.53657 10.4308 3.94004 10.4314H3.94079H8.42443H8.56258L8.68113 10.3604ZM20.6184 12.4396H23.5V12.6538H20.6184V12.4396ZM21.3307 20.3032L19.0215 18.5531L19.1559 18.3805L21.4654 20.13L21.3307 20.3032ZM21.3729 4.87004L19.0634 6.61948L18.929 6.44686L21.2382 4.69678L21.3729 4.87004ZM15.8115 14.4037V10.6899C15.8143 10.6966 15.817 10.7034 15.8197 10.7101C16.0392 11.2571 16.1522 11.8671 16.1514 12.5462C16.1507 13.226 16.0377 13.8368 15.8193 14.3844C15.8167 14.3909 15.8141 14.3973 15.8115 14.4037Z" fill="white" stroke="#002D71"/>
</g>
</svg>
