<svg width="58" height="58" viewBox="0 0 58 58" fill="none" xmlns="http://www.w3.org/2000/svg">
<rect width="58" height="58" rx="29" fill="#E7E5E4"/>
<path d="M33.5834 25.0001C33.5834 27.5314 31.5314 29.5834 29.0001 29.5834V31.0834C32.3598 31.0834 35.0834 28.3598 35.0834 25.0001H33.5834ZM29.0001 29.5834C26.4688 29.5834 24.4167 27.5314 24.4167 25.0001H22.9167C22.9167 28.3598 25.6403 31.0834 29.0001 31.0834V29.5834ZM24.4167 25.0001C24.4167 22.4688 26.4688 20.4167 29.0001 20.4167V18.9167C25.6403 18.9167 22.9167 21.6403 22.9167 25.0001H24.4167ZM29.0001 20.4167C31.5314 20.4167 33.5834 22.4688 33.5834 25.0001H35.0834C35.0834 21.6403 32.3598 18.9167 29.0001 18.9167V20.4167ZM25.0001 35.0834H33.0001V33.5834H25.0001V35.0834ZM16.4167 29.0001C16.4167 22.0505 22.0505 16.4167 29.0001 16.4167V14.9167C21.2221 14.9167 14.9167 21.2221 14.9167 29.0001H16.4167ZM29.0001 16.4167C35.9497 16.4167 41.5834 22.0505 41.5834 29.0001H43.0834C43.0834 21.2221 36.7781 14.9167 29.0001 14.9167V16.4167ZM41.5834 29.0001C41.5834 32.5687 40.0989 35.7893 37.7117 38.0802L38.7503 39.1625C41.42 36.6004 43.0834 32.9938 43.0834 29.0001H41.5834ZM37.7117 38.0802C35.45 40.2507 32.3815 41.5834 29.0001 41.5834V43.0834C32.7839 43.0834 36.2206 41.5902 38.7503 39.1625L37.7117 38.0802ZM33.0001 35.0834C35.223 35.0834 37.0779 36.6667 37.4954 38.7675L38.9666 38.4751C38.4123 35.686 35.9526 33.5834 33.0001 33.5834V35.0834ZM29.0001 41.5834C25.6187 41.5834 22.5501 40.2507 20.2885 38.0802L19.2499 39.1625C21.7796 41.5902 25.2162 43.0834 29.0001 43.0834V41.5834ZM20.2885 38.0802C17.9013 35.7893 16.4167 32.5687 16.4167 29.0001H14.9167C14.9167 32.9938 16.5801 36.6004 19.2499 39.1625L20.2885 38.0802ZM25.0001 33.5834C22.0476 33.5834 19.5879 35.686 19.0336 38.4751L20.5048 38.7675C20.9223 36.6667 22.7771 35.0834 25.0001 35.0834V33.5834Z" fill="#A3A3A3"/>
<path d="M33.5834 25.0001C33.5834 27.5314 31.5314 29.5834 29.0001 29.5834V31.0834C32.3598 31.0834 35.0834 28.3598 35.0834 25.0001H33.5834ZM29.0001 29.5834C26.4688 29.5834 24.4167 27.5314 24.4167 25.0001H22.9167C22.9167 28.3598 25.6403 31.0834 29.0001 31.0834V29.5834ZM24.4167 25.0001C24.4167 22.4688 26.4688 20.4167 29.0001 20.4167V18.9167C25.6403 18.9167 22.9167 21.6403 22.9167 25.0001H24.4167ZM29.0001 20.4167C31.5314 20.4167 33.5834 22.4688 33.5834 25.0001H35.0834C35.0834 21.6403 32.3598 18.9167 29.0001 18.9167V20.4167Z" fill="#A3A3A3"/>
</svg>
