<svg width="138" height="40" viewBox="0 0 138 40" fill="none" xmlns="http://www.w3.org/2000/svg">
<rect x="0.5" y="0.5" width="137" height="39" rx="11.5" stroke="#A3A3A3"/>
<path d="M17.0789 21.494L17.9609 20.906L18.5769 21.228L19.2909 19.828C19.4869 19.4547 19.7529 19.17 20.0889 18.974C20.4249 18.7687 20.7842 18.666 21.1669 18.666C21.5122 18.666 21.8389 18.7453 22.1469 18.904C22.5482 19.1187 22.8562 19.4407 23.0709 19.87C23.2949 20.29 23.4069 20.7613 23.4069 21.284C23.4069 21.928 23.2482 22.5487 22.9309 23.146C22.7816 23.4353 22.5762 23.664 22.3149 23.832C22.0536 23.9907 21.7736 24.07 21.4749 24.07C21.2136 24.07 20.9662 24.0093 20.7329 23.888L18.3809 22.67L18.6329 28.158L17.3309 28.2L17.0789 21.494ZM21.4329 22.698C21.4982 22.7353 21.5682 22.754 21.6429 22.754C21.7549 22.754 21.8436 22.6887 21.9089 22.558C22.1422 22.0727 22.2589 21.6387 22.2589 21.256C22.2589 20.7333 22.0676 20.3693 21.6849 20.164C21.5449 20.0893 21.3956 20.052 21.2369 20.052C21.0316 20.052 20.8356 20.1173 20.6489 20.248C20.4716 20.3693 20.3269 20.5467 20.2149 20.78L19.6969 21.802L21.4329 22.698ZM27.8835 24C27.2582 24 26.7635 23.9067 26.3995 23.72C26.0355 23.5333 25.7695 23.2347 25.6015 22.824C25.4335 22.404 25.3355 21.8253 25.3075 21.088L25.0555 14.648L26.3575 14.592L26.6095 21.088C26.6282 21.536 26.6655 21.858 26.7215 22.054C26.7868 22.2407 26.8988 22.3713 27.0575 22.446C27.2255 22.5113 27.5008 22.544 27.8835 22.544H28.0235L28.1075 23.272L28.0235 24H27.8835ZM27.889 22.544H28.995C29.443 22.544 29.7883 22.4693 30.031 22.32C30.283 22.1707 30.409 21.914 30.409 21.55C30.409 21.3633 30.3763 21.158 30.311 20.934L29.751 18.848L31.011 18.484L31.571 20.57C31.6643 20.906 31.711 21.2327 31.711 21.55C31.711 22.3153 31.4543 22.9173 30.941 23.356C30.4277 23.7853 29.779 24 28.995 24H27.889V22.544ZM29.009 15.726H30.563V17.28H29.009V15.726ZM38.884 24C37.8293 24 37.0313 23.9907 36.49 23.972C35.958 23.944 35.552 23.9067 35.272 23.86C35.0013 23.804 34.74 23.7247 34.488 23.622C34.0493 23.426 33.7133 23.1413 33.48 22.768C33.2467 22.3947 33.13 21.9607 33.13 21.466C33.13 21.1673 33.172 20.85 33.256 20.514L33.774 18.512L35.02 18.876L34.488 20.934C34.4413 21.0927 34.418 21.2653 34.418 21.452C34.418 21.6573 34.4647 21.8253 34.558 21.956C34.6513 22.0867 34.8007 22.1987 35.006 22.292C35.23 22.3853 35.5753 22.4507 36.042 22.488C36.518 22.5253 37.4933 22.544 38.968 22.544H42.258C42.6873 22.544 42.9907 22.474 43.168 22.334C43.3453 22.1847 43.4247 21.956 43.406 21.648V21.62L43.252 19.898L44.554 19.772L44.708 21.494V21.536C44.7453 21.9187 44.8433 22.1847 45.002 22.334C45.17 22.474 45.45 22.544 45.842 22.544H45.996L46.08 23.272L45.996 24H45.842C45.0673 24 44.4793 23.7853 44.078 23.356C43.8633 23.5613 43.602 23.72 43.294 23.832C42.986 23.944 42.6407 24 42.258 24H38.968H38.884ZM37.022 17.672H38.394V19.058H37.022V17.672ZM39.626 17.672H40.998V19.058H39.626V17.672ZM45.8402 22.544H46.7222C47.1515 22.544 47.4548 22.474 47.6322 22.334C47.8095 22.1847 47.8888 21.956 47.8702 21.648V21.62L47.7162 19.898L49.0042 19.772L49.1582 21.494V21.508C49.1955 21.9 49.2935 22.1707 49.4522 22.32C49.6108 22.4693 49.8955 22.544 50.3062 22.544L50.3902 23.272L50.3062 24C49.5408 24 48.9528 23.79 48.5422 23.37C48.1035 23.79 47.4968 24 46.7222 24H45.8402V22.544ZM45.8542 25.218H47.4082V26.772H45.8542V25.218ZM50.1605 22.544H52.2325C52.6711 22.544 53.0118 22.4693 53.2545 22.32C53.5065 22.1613 53.6325 21.9 53.6325 21.536C53.6325 21.3587 53.5998 21.158 53.5345 20.934L52.9885 18.848L54.2485 18.484L54.8085 20.64C54.9018 20.9573 54.9485 21.2747 54.9485 21.592C54.9485 22.096 54.8271 22.53 54.5845 22.894C54.3418 23.258 54.0151 23.5333 53.6045 23.72C53.1938 23.9067 52.7365 24 52.2325 24H50.1605V22.544ZM50.7065 15.726H52.1625L52.1765 17.196H50.6925L50.7065 15.726ZM52.0925 13.85H53.4225V15.11H52.0925V13.85ZM53.3245 15.726H54.7805L54.7945 17.196H53.3105L53.3245 15.726ZM62.8562 24C62.2308 24 61.7362 23.9067 61.3722 23.72C61.0082 23.5333 60.7422 23.2347 60.5742 22.824C60.4062 22.404 60.3082 21.8253 60.2802 21.088L60.0282 14.648L61.3302 14.592L61.5822 21.088C61.6008 21.536 61.6382 21.858 61.6942 22.054C61.7595 22.2407 61.8715 22.3713 62.0302 22.446C62.1982 22.5113 62.4735 22.544 62.8562 22.544H62.9962L63.0802 23.272L62.9962 24H62.8562ZM62.8616 22.544H64.9336C65.3723 22.544 65.713 22.4693 65.9556 22.32C66.2076 22.1613 66.3336 21.9 66.3336 21.536C66.3336 21.3587 66.301 21.158 66.2356 20.934L65.6896 18.848L66.9496 18.484L67.5096 20.64C67.603 20.9573 67.6496 21.2747 67.6496 21.592C67.6496 22.096 67.5283 22.53 67.2856 22.894C67.043 23.258 66.7163 23.5333 66.3056 23.72C65.895 23.9067 65.4376 24 64.9336 24H62.8616V22.544ZM62.2316 25.344H63.6036V26.73H62.2316V25.344ZM64.8356 25.344H66.2076V26.73H64.8356V25.344ZM75.0813 24C74.372 24 73.8027 23.846 73.3733 23.538C72.9533 23.23 72.7247 22.8333 72.6873 22.348C72.65 22.1707 72.6313 21.8673 72.6313 21.438H73.8353C73.8353 21.7087 73.8493 21.928 73.8773 22.096C73.9147 22.264 74.008 22.3807 74.1573 22.446C74.3067 22.5113 74.54 22.544 74.8573 22.544H76.0193C76.85 22.544 77.2653 22.292 77.2653 21.788C77.2653 21.732 77.2467 21.62 77.2093 21.452C77.0507 20.976 76.766 20.388 76.3553 19.688C75.954 18.988 75.5107 18.2927 75.0253 17.602L76.0753 16.748C76.626 17.5133 77.1253 18.2927 77.5733 19.086C78.0307 19.8793 78.3293 20.5607 78.4693 21.13C78.5253 21.3633 78.5533 21.5967 78.5533 21.83C78.5533 22.474 78.3247 22.9967 77.8673 23.398C77.41 23.7993 76.738 24 75.8513 24H75.0813ZM80.6419 26.184C81.7339 25.96 82.5132 25.778 82.9799 25.638C83.4465 25.5073 83.7825 25.3393 83.9879 25.134C84.2025 24.938 84.3099 24.6533 84.3099 24.28C84.3099 24.1307 84.3052 24.014 84.2959 23.93L84.2819 23.86C83.7032 23.9533 83.1339 24 82.5739 24C82.1072 24 81.6825 23.888 81.2999 23.664C80.9265 23.44 80.6325 23.132 80.4179 22.74C80.2125 22.348 80.1099 21.9 80.1099 21.396C80.1099 20.9013 80.2172 20.4347 80.4319 19.996C80.6465 19.5573 80.9452 19.2027 81.3279 18.932C81.7199 18.6613 82.1679 18.526 82.6719 18.526C83.3905 18.526 83.9925 18.8013 84.4779 19.352C84.9632 19.9027 85.2572 20.626 85.3599 21.522L85.5979 23.776C85.6165 24.0373 85.6259 24.224 85.6259 24.336C85.6259 25.008 85.4625 25.54 85.1359 25.932C84.8185 26.324 84.3379 26.6367 83.6939 26.87C83.0499 27.1033 82.1212 27.346 80.9079 27.598L80.6419 26.184ZM81.4119 21.382C81.4119 21.746 81.5145 22.0307 81.7199 22.236C81.9252 22.4413 82.2099 22.544 82.5739 22.544C83.1152 22.544 83.6379 22.4973 84.1419 22.404L84.0719 21.704C84.0159 21.1533 83.8619 20.7287 83.6099 20.43C83.3579 20.1313 83.0405 19.982 82.6579 19.982C82.2752 19.982 81.9719 20.122 81.7479 20.402C81.5239 20.6727 81.4119 20.9993 81.4119 21.382ZM86.1191 26.184L86.8051 26.002C87.3185 25.862 87.7151 25.7313 87.9951 25.61C88.2845 25.4887 88.5131 25.3207 88.6811 25.106C88.8585 24.9007 88.9471 24.6253 88.9471 24.28C88.9471 24.2147 88.9378 24.098 88.9191 23.93L88.3591 19.898L89.6471 19.702L90.0531 22.67L90.0951 22.964L90.1931 23.762C90.2211 23.986 90.2351 24.1913 90.2351 24.378C90.2351 25.218 89.9738 25.862 89.4511 26.31C88.9378 26.758 88.1678 27.122 87.1411 27.402L86.4551 27.584L86.1191 26.184ZM92.3176 26.184C93.4096 25.96 94.189 25.778 94.6556 25.638C95.1223 25.5073 95.4583 25.3393 95.6636 25.134C95.8783 24.938 95.9856 24.6533 95.9856 24.28C95.9856 24.1307 95.981 24.014 95.9716 23.93L95.9576 23.86C95.379 23.9533 94.8096 24 94.2496 24C93.783 24 93.3583 23.888 92.9756 23.664C92.6023 23.44 92.3083 23.132 92.0936 22.74C91.8883 22.348 91.7856 21.9 91.7856 21.396C91.7856 20.9013 91.893 20.4347 92.1076 19.996C92.3223 19.5573 92.621 19.2027 93.0036 18.932C93.3956 18.6613 93.8436 18.526 94.3476 18.526C95.0663 18.526 95.6683 18.8013 96.1536 19.352C96.639 19.9027 96.933 20.626 97.0356 21.522L97.2736 23.776C97.2923 24.0373 97.3016 24.224 97.3016 24.336C97.3016 25.008 97.1383 25.54 96.8116 25.932C96.4943 26.324 96.0136 26.6367 95.3696 26.87C94.7256 27.1033 93.797 27.346 92.5836 27.598L92.3176 26.184ZM93.0876 21.382C93.0876 21.746 93.1903 22.0307 93.3956 22.236C93.601 22.4413 93.8856 22.544 94.2496 22.544C94.791 22.544 95.3136 22.4973 95.8176 22.404L95.7476 21.704C95.6916 21.1533 95.5376 20.7287 95.2856 20.43C95.0336 20.1313 94.7163 19.982 94.3336 19.982C93.951 19.982 93.6476 20.122 93.4236 20.402C93.1996 20.6727 93.0876 20.9993 93.0876 21.382Z" fill="#404040"/>
<path d="M120 11V11.75V11ZM121 11V10.25V11ZM127 17H127.75H127ZM127 23H126.25H127ZM121 29V29.75V29ZM120 29V28.25V29ZM126.938 24.7822L127.679 24.8995V24.8995L126.938 24.7822ZM122.782 28.9384L122.665 28.1977L122.782 28.9384ZM122.782 11.0616L122.899 10.3208L122.899 10.3208L122.782 11.0616ZM126.938 15.2178L127.679 15.1005V15.1005L126.938 15.2178ZM116.55 11.4C116.218 11.6487 116.152 12.1189 116.4 12.4501C116.649 12.7813 117.119 12.8481 117.45 12.5993L116.55 11.4ZM117.45 27.4007C117.119 27.1519 116.649 27.2187 116.4 27.5499C116.152 27.8811 116.218 28.3513 116.55 28.6L117.45 27.4007ZM109 19.25C108.586 19.25 108.25 19.5858 108.25 20C108.25 20.4142 108.586 20.75 109 20.75L109 19.25ZM122 20V19.25V20ZM118.534 23.4123C118.209 23.6697 118.155 24.1414 118.412 24.466C118.67 24.7905 119.141 24.845 119.466 24.5877L118.534 23.4123ZM120.763 22.6022L120.297 22.0145L120.763 22.6022ZM120.763 17.3978L120.297 17.9855L120.763 17.3978ZM119.466 15.4123C119.141 15.155 118.67 15.2095 118.412 15.534C118.155 15.8586 118.209 16.3303 118.534 16.5877L119.466 15.4123ZM122.98 20.2507L123.721 20.3687L123.721 20.3687L122.98 20.2507ZM122.98 19.7493L123.721 19.6313L123.721 19.6313L122.98 19.7493ZM120 11.75L121 11.75V10.25L120 10.25V11.75ZM126.25 17V23H127.75V17H126.25ZM121 28.25H120V29.75H121V28.25ZM126.25 23C126.25 23.9577 126.248 24.3492 126.198 24.6648L127.679 24.8995C127.752 24.4378 127.75 23.9003 127.75 23H126.25ZM121 29.75C121.9 29.75 122.438 29.7523 122.899 29.6792L122.665 28.1977C122.349 28.2477 121.958 28.25 121 28.25V29.75ZM126.198 24.6648C125.91 26.4834 124.483 27.9096 122.665 28.1977L122.899 29.6792C125.36 29.2895 127.29 27.3599 127.679 24.8995L126.198 24.6648ZM121 11.75C121.958 11.75 122.349 11.7523 122.665 11.8023L122.899 10.3208C122.438 10.2477 121.9 10.25 121 10.25V11.75ZM127.75 17C127.75 16.0997 127.752 15.5622 127.679 15.1005L126.198 15.3352C126.248 15.6508 126.25 16.0423 126.25 17H127.75ZM122.665 11.8023C124.483 12.0904 125.91 13.5166 126.198 15.3352L127.679 15.1005C127.29 12.6401 125.36 10.7105 122.899 10.3208L122.665 11.8023ZM120 10.25C118.706 10.25 117.511 10.6781 116.55 11.4L117.45 12.5993C118.161 12.0658 119.042 11.75 120 11.75V10.25ZM120 28.25C119.042 28.25 118.161 27.9342 117.45 27.4007L116.55 28.6C117.511 29.3219 118.706 29.75 120 29.75V28.25ZM109 20.75L122 20.75V19.25L109 19.25L109 20.75ZM119.466 24.5877L121.229 23.1898L120.297 22.0145L118.534 23.4123L119.466 24.5877ZM121.229 16.8102L119.466 15.4123L118.534 16.5877L120.297 17.9855L121.229 16.8102ZM121.229 23.1898C121.918 22.6438 122.485 22.1953 122.887 21.7945C123.293 21.3904 123.629 20.9418 123.721 20.3687L122.239 20.1327C122.223 20.2388 122.153 20.4087 121.829 20.7318C121.501 21.0582 121.014 21.4457 120.297 22.0145L121.229 23.1898ZM120.297 17.9855C121.014 18.5543 121.501 18.9418 121.829 19.2682C122.153 19.5913 122.223 19.7612 122.239 19.8673L123.721 19.6313C123.629 19.0582 123.293 18.6096 122.887 18.2055C122.485 17.8047 121.918 17.3562 121.229 16.8102L120.297 17.9855ZM123.721 20.3687C123.74 20.2466 123.75 20.1234 123.75 20H122.25C122.25 20.0441 122.247 20.0883 122.239 20.1327L123.721 20.3687ZM123.75 20C123.75 19.8766 123.74 19.7534 123.721 19.6313L122.239 19.8673C122.247 19.9117 122.25 19.9559 122.25 20H123.75ZM122 20.75H123V19.25H122V20.75Z" fill="#404040"/>
</svg>
