<svg width="83" height="44" viewBox="0 0 83 44" fill="none" xmlns="http://www.w3.org/2000/svg">
<rect x="0.5" y="0.5" width="82" height="43" rx="11.5" stroke="#A3A3A3"/>
<path d="M22.3975 30.844C22.0522 30.928 21.7022 30.97 21.3475 30.97C20.4795 30.97 19.7095 30.718 19.0375 30.214C18.3655 29.71 17.9175 29.0333 17.6935 28.184C17.6002 27.8293 17.5535 27.4887 17.5535 27.162C17.5535 26.3127 17.8288 25.5333 18.3795 24.824C18.9302 24.1147 19.7702 23.6107 20.8995 23.312L24.4415 22.388L21.5995 20.904C21.3662 20.7733 21.1048 20.708 20.8155 20.708C20.5355 20.708 20.2742 20.778 20.0315 20.918C19.7888 21.058 19.5928 21.2633 19.4435 21.534L19.1915 21.968L18.0715 21.268L18.3375 20.778C18.6268 20.2833 18.9862 19.9053 19.4155 19.644C19.8448 19.3827 20.3022 19.252 20.7875 19.252C21.2822 19.252 21.7628 19.3827 22.2295 19.644L26.0375 21.772L25.8555 23.452L25.2535 23.62C25.3655 23.9 25.5428 24.124 25.7855 24.292C26.0375 24.46 26.3315 24.544 26.6675 24.544H27.1855L27.2695 25.272L27.1855 26H26.6675C26.0328 26 25.4775 25.8133 25.0015 25.44C24.5348 25.0573 24.2175 24.558 24.0495 23.942L21.2355 24.712C20.3862 24.936 19.7748 25.272 19.4015 25.72C19.0375 26.168 18.8555 26.658 18.8555 27.19C18.8555 27.3673 18.8788 27.5587 18.9255 27.764C19.0655 28.296 19.3595 28.7207 19.8075 29.038C20.2648 29.3647 20.7828 29.528 21.3615 29.528C21.6322 29.528 21.8842 29.4953 22.1175 29.43L25.6735 28.436L26.0095 29.836L22.3975 30.844ZM20.0315 16.648H21.5855V18.202H20.0315V16.648ZM34.5831 26C33.8831 26 33.3184 25.7573 32.8891 25.272C32.4691 25.7573 31.8858 26 31.1391 26C30.7938 26 30.4764 25.9347 30.1871 25.804C29.9071 25.6733 29.6644 25.4913 29.4591 25.258C29.0298 25.7527 28.4464 26 27.7091 26H27.0511V24.544H27.7091C28.1478 24.544 28.4464 24.46 28.6051 24.292C28.7638 24.124 28.8478 23.9047 28.8571 23.634V23.55V21.814H30.0751V23.55V23.634C30.0844 23.9233 30.1778 24.1473 30.3551 24.306C30.5324 24.4647 30.7938 24.544 31.1391 24.544C31.5964 24.544 31.8998 24.4507 32.0491 24.264C32.2078 24.0773 32.2871 23.8393 32.2871 23.55V21.814H33.5051V23.55V23.634C33.5051 23.9233 33.5938 24.1473 33.7711 24.306C33.9578 24.4647 34.2284 24.544 34.5831 24.544C35.3484 24.544 35.7311 24.222 35.7311 23.578C35.7311 23.382 35.6984 23.1673 35.6331 22.934L35.0731 20.848L36.3331 20.484L36.8931 22.57C36.9864 22.9153 37.0331 23.2513 37.0331 23.578C37.0331 24.0727 36.9211 24.5067 36.6971 24.88C36.4824 25.244 36.1884 25.524 35.8151 25.72C35.4511 25.9067 35.0404 26 34.5831 26ZM41.5105 26C40.8851 26 40.3905 25.9067 40.0265 25.72C39.6625 25.5333 39.3965 25.2347 39.2285 24.824C39.0605 24.404 38.9625 23.8253 38.9345 23.088L38.6825 16.648L39.9845 16.592L40.2365 23.088C40.2551 23.536 40.2925 23.858 40.3485 24.054C40.4138 24.2407 40.5258 24.3713 40.6845 24.446C40.8525 24.5113 41.1278 24.544 41.5105 24.544H41.6505L41.7345 25.272L41.6505 26H41.5105ZM41.5159 24.544H43.5879C44.0266 24.544 44.3673 24.4693 44.6099 24.32C44.8619 24.1613 44.9879 23.9 44.9879 23.536C44.9879 23.3587 44.9553 23.158 44.8899 22.934L44.3439 20.848L45.6039 20.484L46.1639 22.64C46.2573 22.9573 46.3039 23.2747 46.3039 23.592C46.3039 24.096 46.1826 24.53 45.9399 24.894C45.6973 25.258 45.3706 25.5333 44.9599 25.72C44.5493 25.9067 44.0919 26 43.5879 26H41.5159V24.544ZM40.8299 27.274H42.3139L42.2999 28.744H40.8299V27.274ZM42.2299 29.36H43.5599V30.62H42.2299V29.36ZM43.4479 27.274H44.9179V28.744H43.4479V27.274Z" fill="#404040"/>
<path d="M59.56 23.5H58.3528L59.2064 24.3536L62.4264 27.5736L62.4326 27.5798L62.4391 27.5858C62.4637 27.6087 62.4834 27.6363 62.497 27.667C62.5107 27.6976 62.518 27.7307 62.5186 27.7643C62.5192 27.7979 62.513 27.8312 62.5005 27.8623C62.4879 27.8935 62.4692 27.9217 62.4454 27.9455C62.4217 27.9692 62.3934 27.9879 62.3623 28.0005C62.3312 28.0131 62.2978 28.0193 62.2642 28.0187C62.2307 28.0181 62.1976 28.0107 62.1669 27.9971C62.1362 27.9834 62.1086 27.9637 62.0858 27.9391L62.0797 27.9327L62.0735 27.9264L57.5737 23.4267C57.5737 23.4266 57.5736 23.4266 57.5736 23.4265C57.5269 23.3797 57.5006 23.3162 57.5006 23.25C57.5006 23.1838 57.5269 23.1203 57.5736 23.0735C57.5736 23.0734 57.5737 23.0734 57.5737 23.0733L62.0656 18.5815C62.1124 18.5401 62.173 18.5176 62.2357 18.5187C62.3004 18.5199 62.3622 18.5461 62.408 18.5919C62.4538 18.6377 62.4801 18.6995 62.4812 18.7643C62.4823 18.8269 62.4599 18.8876 62.4185 18.9344L59.2064 22.1464L58.3528 23H59.56H65.75C67.4076 23 68.9973 22.3415 70.1694 21.1694C71.3415 19.9973 72 18.4076 72 16.75C72 16.6837 72.0263 16.6201 72.0732 16.5732C72.1201 16.5263 72.1836 16.5 72.25 16.5C72.3163 16.5 72.3798 16.5263 72.4267 16.5732C72.4736 16.6201 72.5 16.6837 72.5 16.75C72.5 18.5402 71.7888 20.2571 70.5229 21.523C69.2571 22.7888 67.5402 23.5 65.75 23.5H59.56Z" fill="black" stroke="#404040"/>
</svg>
