<svg width="10" height="6" viewBox="0 0 10 6" fill="none" xmlns="http://www.w3.org/2000/svg">
<path d="M9.61059 1.77334C9.85357 1.52818 9.85181 1.13245 9.60664 0.889465C9.36148 0.646479 8.96575 0.648244 8.72277 0.893408L7.26668 2.36255C6.67573 2.95879 6.26903 3.3678 5.92442 3.64455C5.58968 3.91338 5.37466 4.0056 5.1821 4.03015C5.06118 4.04556 4.93884 4.04556 4.81792 4.03015C4.62536 4.0056 4.41034 3.91338 4.0756 3.64455C3.73099 3.3678 3.32429 2.95879 2.73334 2.36255L1.27725 0.893409C1.03427 0.648245 0.638542 0.646479 0.393378 0.889466C0.148214 1.13245 0.146448 1.52818 0.389435 1.77334L1.87176 3.26895C2.43004 3.83226 2.88633 4.29266 3.29289 4.61916C3.71566 4.95868 4.14478 5.20446 4.65988 5.27012C4.88573 5.2989 5.11429 5.2989 5.34015 5.27012C5.85524 5.20446 6.28436 4.95868 6.70713 4.61916C7.11369 4.29266 7.56997 3.83226 8.12826 3.26895L9.61059 1.77334Z" fill="#404040"/>
</svg>
