<svg width="20" height="20" viewBox="0 0 20 20" fill="none" xmlns="http://www.w3.org/2000/svg">
<g clip-path="url(#clip0_1384_152)">
<path d="M10 0.625C5.90625 0.625 2.4375 3.21875 1.15625 6.875H18.8438C17.5625 3.21875 14.0938 0.625 10 0.625Z" fill="#83BF4F"/>
<path d="M10 19.375C14.0938 19.375 17.5625 16.7812 18.8438 13.125H1.15625C2.4375 16.7812 5.90625 19.375 10 19.375Z" fill="#ED4C5C"/>
<path d="M1.15625 6.875C0.8125 7.84375 0.625 8.90625 0.625 10C0.625 11.0938 0.8125 12.1562 1.15625 13.125H18.8438C19.1875 12.1562 19.375 11.0938 19.375 10C19.375 8.90625 19.1875 7.84375 18.8438 6.875H1.15625Z" fill="#F9F9F9"/>
<path d="M18.5625 13.8438L18.4687 14.0313H18.5625V13.8438ZM1.53125 14.0313L1.4375 13.8438V14.0313H1.53125ZM1.75 5.875H1.59375C1.5625 5.90625 1.53125 5.9375 1.53125 5.96875H1.75V5.875Z" fill="white"/>
<path d="M1.75 6.5625V6.46875H1.4375V6.28125H1.90625V6.5625H2.59375V5.84375H2.5V6.4375H2.3125V5.84375H2.21875V6.4375H2.03125V5.84375H1.9375V6.15625H1.4375C1.40625 6.21875 1.375 6.3125 1.34375 6.375V6.5625H1.75ZM1.75 14.0312H1.53125C1.53125 14.0625 1.5625 14.0938 1.59375 14.125H1.78125L1.75 14.0312ZM1.4375 13.8437H1.90625V14.125H2.59375V13.4062H2.5V14H2.3125V13.4062H2.21875V14H2.03125V13.4062H1.9375V13.7188H1.40625C1.40625 13.7813 1.4375 13.8125 1.4375 13.8437Z" fill="white"/>
<path d="M1.75 13.4375H1.28125C1.28125 13.4688 1.3125 13.5 1.3125 13.5312H1.75V13.4375ZM4.25 6.5625H4.6875V6.46875H4.375V6.28125H4.84375V6.5625H5.53125V5.84375H5.4375V6.46875H5.25V5.84375H5.125V6.46875H4.9375V5.84375H4.84375V6.15625H4.25V6.5625ZM4.0625 6.5625V6.15625H3.65625V6.28125H3.96875V6.46875H3.5V6.15625H2.8125V6.59375H2.90625V6.28125H3.375V6.5625H4.0625Z" fill="white"/>
<path d="M3.0625 6.46875H3.21875V6.5625H3.0625V6.46875ZM2.78125 5.875H4.6875V5.96875H2.78125V5.875ZM3.65625 13.8438H3.96875V14.0313H3.5V13.7188H2.8125V14.1562H2.90625V13.8438H3.375V14.125H4.0625V13.7188H3.65625V13.8438Z" fill="white"/>
<path d="M3.0625 14.0313H3.21875V14.125H3.0625V14.0313ZM2.78125 13.4375H4.6875V13.5312H2.78125V13.4375Z" fill="white"/>
<path d="M5.4375 14.0312H5.25V13.4062H5.125V14.0312H4.9375V13.4062H4.84375V13.7188H4.25V14.125H4.6875V14.0312H4.375V13.8437H4.84375V14.125H5.53125V13.4062H5.4375V14.0312ZM7.1875 6.5625H7.59375V6.46875H7.28125V6.28125H7.75V6.5625H8.4375V5.84375H8.34375V6.46875H8.15625V5.84375H8.0625V6.46875H7.875V5.84375H7.75V6.15625H7.1875V6.5625ZM7 6.5625V6.15625H6.5625V6.28125H6.875V6.46875H6.40625V6.15625H5.71875V6.59375H5.8125V6.28125H6.3125V6.5625H7Z" fill="white"/>
<path d="M5.6875 5.875H7.59375V5.96875H5.6875V5.875ZM6 6.46875H6.15625V6.5625H6V6.46875ZM8.34375 14.0312H8.15625V13.4062H8.0625V14.0312H7.875V13.4062H7.75V13.7188H7.1875V14.125H7.59375V14.0312H7.28125V13.8437H7.75V14.125H8.4375V13.4062H8.34375V14.0312ZM6 14.0312H6.15625V14.125H6V14.0312Z" fill="white"/>
<path d="M5.6875 13.4375H7.59375V13.5312H5.6875V13.4375ZM6.5625 13.8438H6.875V14.0313H6.40625V13.7188H5.71875V14.1562H5.8125V13.8438H6.3125V14.125H7V13.7188H6.5625V13.8438ZM9.90625 6.5625V6.15625H9.5V6.28125H9.8125V6.46875H9.3125V6.15625H8.625V6.59375H8.75V6.28125H9.21875V6.5625H9.90625ZM8.625 5.875H10.5312V5.96875H8.625V5.875Z" fill="white"/>
<path d="M8.90625 6.46875H9.0625V6.5625H8.90625V6.46875ZM10.0937 6.5625H10.5V6.46875H10.1875V6.28125H10.6875V6.5625H11.375V5.84375H11.25V6.46875H11.0625V5.84375H10.9687V6.46875H10.7812V5.84375H10.6875V6.15625H10.0937V6.5625ZM8.625 13.4375H10.5313V13.5313H8.625V13.4375ZM9.5 13.8438H9.8125V14.0313H9.3125V13.7188H8.625V14.1562H8.75V13.8438H9.21875V14.125H9.90625V13.7188H9.5V13.8438Z" fill="white"/>
<path d="M8.90625 14.0312H9.0625V14.125H8.90625V14.0312ZM11.25 14.0312H11.0625V13.4062H10.9687V14.0312H10.7812V13.4062H10.6875V13.7188H10.0937V14.125H10.5V14.0312H10.1875V13.8437H10.6875V14.125H11.375V13.4062H11.25V14.0312ZM11.8125 6.46875H11.9687V6.5625H11.8125V6.46875ZM11.5313 5.875H13.4375V5.96875H11.5313V5.875Z" fill="white"/>
<path d="M13 6.5625H13.4375V6.46875H13.125V6.28125H13.5937V6.5625H14.2812V5.84375H14.1875V6.46875H14V5.84375H13.875V6.46875H13.6875V5.84375H13.5937V6.15625H13V6.5625ZM12.8125 6.5625V6.15625H12.4062V6.28125H12.7187V6.46875H12.25V6.15625H11.5625V6.59375H11.6562V6.28125H12.125V6.5625H12.8125ZM11.5312 13.4375H13.4375V13.5312H11.5312V13.4375Z" fill="white"/>
<path d="M14.1875 14.0312H14V13.4062H13.875V14.0312H13.6875V13.4062H13.5938V13.7188H13V14.125H13.4375V14.0312H13.125V13.8437H13.5938V14.125H14.2813V13.4062H14.1875V14.0312ZM12.4063 13.8437H12.7188V14.0312H12.25V13.7188H11.5625V14.1562H11.6562V13.8437H12.125V14.125H12.8125V13.7188H12.4063V13.8437Z" fill="white"/>
<path d="M11.8125 14.0312H11.9688V14.125H11.8125V14.0312ZM15.75 6.5625V6.15625H15.3125V6.28125H15.625V6.46875H15.1563V6.15625H14.4688V6.59375H14.5625V6.28125H15.0625V6.5625H15.75Z" fill="white"/>
<path d="M14.75 6.46875H14.9062V6.5625H14.75V6.46875ZM14.4375 5.875H16.3437V5.96875H14.4375V5.875Z" fill="white"/>
<path d="M15.9375 6.5625H16.3437V6.46875H16.0312V6.28125H16.5V6.5625H17.1875V5.84375H17.0938V6.46875H16.9062V5.84375H16.8125V6.46875H16.625V5.84375H16.5V6.15625H15.9375V6.5625ZM14.75 14.0312H14.9062V14.125H14.75V14.0312Z" fill="white"/>
<path d="M15.3125 13.8437H15.625V14.0313H15.1562V13.7188H14.4687V14.1562H14.5625V13.8437H15.0625V14.125H15.75V13.7188H15.3125V13.8437ZM14.4375 13.4375H16.3437V13.5312H14.4375V13.4375Z" fill="white"/>
<path d="M17.0938 14.0312H16.9062V13.4062H16.8125V14.0312H16.625V13.4062H16.5V13.7188H15.9375V14.125H16.3437V14.0312H16.0312V13.8437H16.5V14.125H17.1875V13.4062H17.0938V14.0312ZM17.375 5.96875H18.4687C18.4375 5.9375 18.4375 5.90625 18.4063 5.875H17.3438C17.375 5.875 17.375 5.96875 17.375 5.96875ZM18.25 6.28125H18.5625V6.46875H18.0938V6.1875H17.4063V6.59375H17.5V6.28125H17.9688V6.5625H18.6563V6.40625C18.625 6.34375 18.5938 6.25 18.5625 6.1875H18.25V6.28125Z" fill="white"/>
<path d="M17.6563 6.46875H17.8125V6.5625H17.6563V6.46875ZM17.6563 14.0312H17.8125V14.125H17.6563V14.0312ZM17.375 13.4375V13.5312H18.6875C18.6875 13.5 18.7188 13.4688 18.7188 13.4375H17.375ZM18.25 13.8437H18.5625C18.5938 13.8125 18.5938 13.7813 18.625 13.7188H18.25V13.8437Z" fill="white"/>
<path d="M18.0625 14.0313V13.75H17.375V14.1562H17.5V13.8437H17.9688V14.125H18.4063C18.4375 14.0938 18.4375 14.0625 18.4688 14.0313H18.0625Z" fill="white"/>
<path d="M11.4063 10.5938C11.6875 9.78125 11.4063 8.875 10.7813 8.3125C11.5 9.375 11.2188 10.7813 10.2188 11.5313L10.2813 9.78125V8.40625C10.1563 8.34375 10.0625 8.28125 10 8.1875C9.9375 8.28125 9.84375 8.375 9.71875 8.40625V9.78125L9.78125 11.5313C8.75 10.7813 8.5 9.375 9.21875 8.3125C8.5625 8.875 8.3125 9.78125 8.59375 10.5938C8.78125 11.1563 9.15625 11.5625 9.625 11.8125C9.34375 11.9062 9.03125 11.9688 8.71875 11.9688C9.09375 12.0938 9.46875 12.0938 9.8125 12.0313V12.0938L10 12.3438L10.1875 12.0938V12.0313C10.5313 12.0938 10.9063 12.0938 11.2813 11.9688C10.9688 11.9688 10.6563 11.9375 10.375 11.8125C10.8438 11.5625 11.2188 11.125 11.4063 10.5938Z" fill="#ED4C5C"/>
<path d="M12.0937 9.09375C11.8437 8.6875 11.4375 8.375 10.9687 8.25C12 9.03125 12.2187 10.5 11.4375 11.5313C12.3125 11.0625 12.5937 9.96875 12.0937 9.09375ZM9 8.25C8.53125 8.375 8.125 8.65625 7.875 9.09375C7.375 9.9375 7.6875 11.0313 8.53125 11.5313C7.78125 10.5 7.96875 9.03125 9 8.25ZM9.53125 8.125C9.6875 8.21875 9.90625 8.1875 10 8.03125C10.0937 8.1875 10.3125 8.21875 10.4687 8.125C10.5937 8.03125 10.6562 7.875 10.5937 7.71875C10.5625 7.90625 10.4062 8 10.2187 7.96875C10.125 7.9375 10.0625 7.90625 10 7.8125C9.96875 7.90625 9.875 7.9375 9.78125 7.96875C9.59375 8 9.4375 7.875 9.40625 7.71875C9.34375 7.875 9.40625 8.03125 9.53125 8.125Z" fill="#ED4C5C"/>
</g>
<defs>
<clipPath id="clip0_1384_152">
<rect width="20" height="20" fill="white"/>
</clipPath>
</defs>
</svg>
