<svg width="69" height="72" viewBox="0 0 69 72" fill="none" xmlns="http://www.w3.org/2000/svg">
<path fill-rule="evenodd" clip-rule="evenodd" d="M55.7783 22.5867C54.6869 22.3249 53.5711 22.193 52.452 22.1937C43.5893 22.1937 36.4068 30.3417 36.4068 40.3887C36.4068 50.4387 43.5893 58.5867 52.452 58.5867C61.3147 58.5867 68.5 50.4417 68.5 40.3887C68.5 40.0947 68.4943 39.7977 68.4802 39.5037H68.5C68.5 24.3387 57.62 11.9997 44.2467 11.9997V18.1077C48.5845 18.1077 52.5852 19.7817 55.7783 22.5867ZM19.8687 22.5867C18.7977 22.3287 17.687 22.1937 16.548 22.1937C7.68533 22.1937 0.5 30.3417 0.5 40.3887C0.5 50.4387 7.68533 58.5867 16.548 58.5867C25.4107 58.5867 32.5932 50.4417 32.5932 40.3887C32.5932 40.0947 32.5875 39.7977 32.5733 39.5037H32.5932C32.5932 24.3387 21.7132 11.9997 8.33984 11.9997V18.1077C12.6805 18.1077 16.6755 19.7817 19.8687 22.5867Z" fill="#FF6F1C"/>
</svg>
