<svg width="20" height="20" viewBox="0 0 20 20" fill="none" xmlns="http://www.w3.org/2000/svg">
<path d="M12.0856 16.2443L11.492 15.7859L12.0856 16.2443ZM7.91441 16.2443L7.32077 16.7026L7.91441 16.2443ZM10 18V17.25V18ZM15.25 8.5573C15.25 9.44524 14.7897 10.6624 14.0372 12.0135C13.3007 13.3359 12.347 14.6786 11.492 15.7859L12.6792 16.7026C13.5565 15.5664 14.56 14.1576 15.3476 12.7434C16.1193 11.3579 16.75 9.85334 16.75 8.5573H15.25ZM8.50804 15.7859C7.65304 14.6786 6.69931 13.3359 5.96282 12.0135C5.21032 10.6624 4.75 9.44524 4.75 8.5573H3.25C3.25 9.85334 3.88072 11.3579 4.65235 12.7434C5.43998 14.1576 6.44346 15.5664 7.32077 16.7026L8.50804 15.7859ZM4.75 8.5573C4.75 5.28592 7.16182 2.75 10 2.75V1.25C6.21077 1.25 3.25 4.58568 3.25 8.5573H4.75ZM10 2.75C12.8382 2.75 15.25 5.28592 15.25 8.5573H16.75C16.75 4.58568 13.7892 1.25 10 1.25V2.75ZM11.492 15.7859C11.0237 16.3923 10.7287 16.7703 10.469 17.0098C10.2409 17.2203 10.1186 17.25 10 17.25V18.75C10.6114 18.75 11.0799 18.4871 11.4862 18.1123C11.8609 17.7666 12.2437 17.2667 12.6792 16.7026L11.492 15.7859ZM7.32077 16.7026C7.75633 17.2667 8.13915 17.7666 8.51384 18.1123C8.92011 18.4871 9.38865 18.75 10 18.75V17.25C9.88143 17.25 9.75906 17.2203 9.53095 17.0098C9.27128 16.7703 8.97626 16.3923 8.50804 15.7859L7.32077 16.7026ZM7 8.85536C7 10.5206 8.33224 11.8905 10 11.8905V10.3905C9.18248 10.3905 8.5 9.71417 8.5 8.85536H7ZM10 11.8905C11.6678 11.8905 13 10.5206 13 8.85536H11.5C11.5 9.71417 10.8175 10.3905 10 10.3905V11.8905ZM13 8.85536C13 7.1901 11.6678 5.82024 10 5.82024V7.32024C10.8175 7.32024 11.5 7.99654 11.5 8.85536H13ZM10 5.82024C8.33224 5.82024 7 7.1901 7 8.85536H8.5C8.5 7.99654 9.18248 7.32024 10 7.32024V5.82024Z" fill="#737373"/>
</svg>
