<svg width="18" height="18" viewBox="0 0 18 18" fill="none" xmlns="http://www.w3.org/2000/svg">
<path d="M15.7038 12.5866L16.4446 12.704V12.704L15.7038 12.5866ZM12.5866 15.7038L12.704 16.4446H12.704L12.5866 15.7038ZM12.5866 2.29617L12.704 1.5554L12.704 1.5554L12.5866 2.29617ZM15.7038 5.41337L16.4446 5.29605V5.29604L15.7038 5.41337ZM7.79957 2.40005C7.46838 2.64882 7.40156 3.11897 7.65032 3.45016C7.89909 3.78135 8.36924 3.84817 8.70043 3.5994L7.79957 2.40005ZM8.70043 14.4006C8.36924 14.1518 7.89909 14.2186 7.65033 14.5498C7.40156 14.881 7.46838 15.3512 7.79957 15.5999L8.70043 14.4006ZM2.25 8.25C1.83579 8.25 1.5 8.58579 1.5 9C1.5 9.41421 1.83579 9.75 2.25 9.75L2.25 8.25ZM12 9V8.25V9ZM9.28403 11.4123C8.95946 11.6697 8.90497 12.1414 9.16232 12.466C9.41967 12.7905 9.8914 12.845 10.216 12.5877L9.28403 11.4123ZM11.0722 10.9516L10.6063 10.3639V10.3639L11.0722 10.9516ZM11.0722 7.04839L10.6063 7.63607L11.0722 7.04839ZM10.216 5.41232C9.8914 5.15497 9.41966 5.20946 9.16232 5.53403C8.90497 5.8586 8.95946 6.33034 9.28403 6.58768L10.216 5.41232ZM12.7351 9.188L13.4757 9.30601L12.7351 9.188ZM12.7351 8.812L13.4757 8.69399L12.7351 8.812ZM10.5 3H11.25V1.5H10.5V3ZM15 6.75V11.25H16.5V6.75H15ZM11.25 15H10.5V16.5H11.25V15ZM15 11.25C15 11.9754 14.9977 12.2508 14.9631 12.4693L16.4446 12.704C16.5023 12.3395 16.5 11.9181 16.5 11.25H15ZM11.25 16.5C11.9181 16.5 12.3395 16.5023 12.704 16.4446L12.4693 14.9631C12.2508 14.9977 11.9754 15 11.25 15V16.5ZM14.9631 12.4693C14.7598 13.753 13.753 14.7598 12.4693 14.9631L12.704 16.4446C14.6295 16.1396 16.1396 14.6295 16.4446 12.704L14.9631 12.4693ZM11.25 3C11.9754 3 12.2508 3.00233 12.4693 3.03693L12.704 1.5554C12.3395 1.49767 11.9181 1.5 11.25 1.5V3ZM16.5 6.75C16.5 6.08191 16.5023 5.66054 16.4446 5.29605L14.9631 5.5307C14.9977 5.7492 15 6.02459 15 6.75H16.5ZM12.4693 3.03693C13.753 3.24025 14.7598 4.24702 14.9631 5.5307L16.4446 5.29604C16.1396 3.37053 14.6295 1.86037 12.704 1.5554L12.4693 3.03693ZM10.5 1.5C9.48782 1.5 8.55173 1.83508 7.79957 2.40005L8.70043 3.5994C9.20176 3.22284 9.82377 3 10.5 3V1.5ZM10.5 15C9.82377 15 9.20176 14.7772 8.70043 14.4006L7.79957 15.5999C8.55173 16.1649 9.48782 16.5 10.5 16.5V15ZM2.25 9.75L12 9.75V8.25L2.25 8.25L2.25 9.75ZM10.216 12.5877L11.5382 11.5393L10.6063 10.3639L9.28403 11.4123L10.216 12.5877ZM11.5382 6.4607L10.216 5.41232L9.28403 6.58768L10.6063 7.63607L11.5382 6.4607ZM11.5382 11.5393C12.0511 11.1326 12.4869 10.7886 12.7979 10.4787C13.1124 10.1655 13.3979 9.79426 13.4757 9.30601L11.9944 9.06999C11.991 9.09126 11.9724 9.1838 11.7393 9.416C11.5029 9.65155 11.1478 9.93452 10.6063 10.3639L11.5382 11.5393ZM10.6063 7.63607C11.1478 8.06548 11.5029 8.34845 11.7393 8.584C11.9724 8.8162 11.991 8.90874 11.9944 8.93001L13.4757 8.69399C13.3979 8.20574 13.1124 7.83451 12.7979 7.5213C12.4869 7.21143 12.0511 6.86735 11.5382 6.4607L10.6063 7.63607ZM13.4757 9.30601C13.4919 9.2047 13.5 9.10246 13.5 9H12C12 9.02313 11.9982 9.04646 11.9944 9.06999L13.4757 9.30601ZM13.5 9C13.5 8.89754 13.4919 8.7953 13.4757 8.69399L11.9944 8.93001C11.9982 8.95354 12 8.97687 12 9H13.5ZM12 9.75H12.75V8.25H12V9.75Z" fill="#404040"/>
</svg>
