<svg width="48" height="48" viewBox="0 0 48 48" fill="none" xmlns="http://www.w3.org/2000/svg">
<path d="M17.3538 6.87909C17.3177 5.39561 18.6058 4.26672 19.959 4.26672C21.1964 4.26672 22.5424 5.25812 22.5496 6.87185C22.5569 8.31914 21.3846 9.49145 19.9373 9.47698C18.2222 9.45527 17.296 8.00798 17.3538 6.87909Z" fill="#F26F24"/>
<path d="M12.1436 41.397C12.1074 39.9136 13.3955 38.7847 14.7487 38.7847C15.9861 38.7847 17.3321 39.7761 17.3394 41.3898C17.3466 42.8371 16.1743 44.0094 14.727 43.9949C13.012 43.9732 12.0857 42.5259 12.1436 41.397Z" fill="#23356D"/>
<path d="M27.7743 41.397C27.7382 39.9136 29.0263 38.7847 30.3795 38.7847C31.6169 38.7847 32.9629 39.7761 32.9701 41.3898C32.9774 42.8371 31.8051 44.0094 30.3578 43.9949C28.6427 43.9732 27.7165 42.5259 27.7743 41.397Z" fill="#23356D"/>
<path d="M32.9774 41.397C32.9412 39.9136 34.2293 38.7847 35.5825 38.7847C36.8199 38.7847 38.1659 39.7761 38.1731 41.3898C38.1804 42.8371 37.0081 44.0094 35.5608 43.9949C33.8457 43.9732 32.9195 42.5259 32.9774 41.397Z" fill="#23356D"/>
<path d="M35.5897 26.4104V28.3135C35.5897 29.7753 34.3957 30.9983 32.9339 30.9693C31.5156 30.9404 30.3795 29.7898 30.3795 28.3642V26.4104V18.6673C30.3795 18.6239 30.3505 18.595 30.3071 18.595H25.2416C25.1982 18.595 25.1692 18.6239 25.1692 18.6673V26.4104V28.2774C25.1692 32.5975 28.6355 36.1651 32.9557 36.1796C37.2831 36.1941 40.8 32.6916 40.8 28.3642V26.4104H35.5897Z" fill="#23356D"/>
<path d="M35.5897 25.1078V12.1545C35.5897 12.1111 35.6187 12.0822 35.6621 12.0822H40.7276C40.771 12.0822 40.8 12.1111 40.8 12.1545V19.8975C40.8 22.7777 38.4698 25.1078 35.5897 25.1078Z" fill="#F26F24"/>
<path d="M40.8 4.26672H30.3795C27.4994 4.26672 25.1692 6.59687 25.1692 9.47698H40.8V4.26672Z" fill="#F26F24"/>
<path d="M22.5641 30.9692V36.1795H12.1436C9.26346 36.1795 6.93332 33.8494 6.93332 30.9692H22.5641Z" fill="#23356D"/>
<path d="M17.3538 12.0821V13.1892V14.6872V15.3385V17.2923V21.8006C17.3538 23.2624 16.1598 24.4854 14.698 24.4564C13.2797 24.4275 12.1436 23.2769 12.1436 21.8513V20.5487V17.9436V15.3385V14.6872V9.47693H6.93332V14.6872V15.3385V17.9436V20.5487V21.7644C6.93332 26.0846 10.3996 29.6522 14.7198 29.6667C19.0472 29.6811 22.5641 26.1787 22.5641 21.8513V17.3647C22.5641 17.3213 22.593 17.2923 22.6365 17.2923H25.2705C28.0928 17.2923 30.3795 15.0056 30.3795 12.1834V12.0821H17.3538Z" fill="#F26F24"/>
</svg>
