<svg width="36" height="36" viewBox="0 0 36 36" fill="none" xmlns="http://www.w3.org/2000/svg">
<path d="M12.6154 4.15983C12.5855 2.93333 13.6504 2 14.7692 2C15.7923 2 16.9051 2.81966 16.9111 4.15385C16.9171 5.35043 15.9479 6.31966 14.7513 6.30769C13.3333 6.28974 12.5675 5.09316 12.6154 4.15983Z" fill="#F26F24"/>
<path d="M8.30772 32.6983C8.2778 31.4718 9.34276 30.5385 10.4616 30.5385C11.4846 30.5385 12.5975 31.3581 12.6034 32.6923C12.6094 33.8889 11.6402 34.8581 10.4436 34.8461C9.02567 34.8282 8.25986 33.6316 8.30772 32.6983Z" fill="#23356D"/>
<path d="M21.2308 32.6983C21.2009 31.4718 22.2659 30.5385 23.3847 30.5385C24.4077 30.5385 25.5206 31.3581 25.5265 32.6923C25.5325 33.8889 24.5633 34.8581 23.3667 34.8461C21.9488 34.8282 21.183 33.6316 21.2308 32.6983Z" fill="#23356D"/>
<path d="M25.5325 32.6982C25.5026 31.4717 26.5676 30.5383 27.6864 30.5383C28.7094 30.5383 29.8223 31.358 29.8282 32.6922C29.8342 33.8888 28.865 34.858 27.6684 34.846C26.2505 34.8281 25.4846 33.6315 25.5325 32.6982Z" fill="#23356D"/>
<path d="M27.6923 20.3077V21.8812C27.6923 23.0898 26.7051 24.1009 25.4966 24.077C24.3239 24.053 23.3846 23.1017 23.3846 21.9231V20.3077V13.906C23.3846 13.8701 23.3607 13.8462 23.3248 13.8462H19.1367C19.1008 13.8462 19.0769 13.8701 19.0769 13.906V20.3077V21.8513C19.0769 25.4231 21.9427 28.3727 25.5145 28.3847C29.0923 28.3966 32 25.5009 32 21.9231V20.3077H27.6923Z" fill="#23356D"/>
<path d="M27.6923 19.2308V8.52138C27.6923 8.48548 27.7163 8.46155 27.7522 8.46155H31.9402C31.9761 8.46155 32 8.48548 32 8.52138V14.9231C32 17.3043 30.0735 19.2308 27.6923 19.2308Z" fill="#F26F24"/>
<path d="M32 2H23.3846C21.0034 2 19.0769 3.9265 19.0769 6.30769H32V2Z" fill="#F26F24"/>
<path d="M16.9231 24.0769V28.3846H8.30769C5.9265 28.3846 4 26.4581 4 24.0769H16.9231Z" fill="#23356D"/>
<path d="M12.6154 8.46159V9.37697V10.6154V11.1539V12.7693V16.4966C12.6154 17.7052 11.6282 18.7163 10.4197 18.6924C9.24701 18.6684 8.30769 17.7171 8.30769 16.5385V15.4616V13.3077V11.1539V10.6154V6.30774H4V10.6154V11.1539V13.3077V15.4616V16.4667C4 20.0385 6.86581 22.9881 10.4376 23C14.0154 23.012 16.9231 20.1163 16.9231 16.5385V12.8291C16.9231 12.7932 16.947 12.7693 16.9829 12.7693H19.1607C21.494 12.7693 23.3846 10.8787 23.3846 8.54535V8.46159H12.6154Z" fill="#F26F24"/>
</svg>
