<svg width="104" height="104" viewBox="0 0 104 104" fill="none" xmlns="http://www.w3.org/2000/svg">
<path d="M36.4445 12.0173C36.358 8.47413 39.4346 5.77783 42.6667 5.77783C45.6222 5.77783 48.8371 8.14573 48.8543 12.0001C48.8716 15.4568 46.0716 18.2568 42.6148 18.2223C38.5185 18.1704 36.3062 14.7136 36.4445 12.0173Z" fill="#F26F24"/>
<path d="M24 94.4619C23.9136 90.9187 26.9901 88.2224 30.2222 88.2224C33.1778 88.2224 36.3926 90.5903 36.4099 94.4446C36.4272 97.9014 33.6272 100.701 30.1704 100.667C26.0741 100.615 23.8617 97.1582 24 94.4619Z" fill="#23356D"/>
<path d="M61.3333 94.4619C61.2469 90.9187 64.3234 88.2224 67.5555 88.2224C70.5111 88.2224 73.7259 90.5903 73.7432 94.4446C73.7605 97.9014 70.9605 100.701 67.5037 100.667C63.4074 100.615 61.1951 97.1582 61.3333 94.4619Z" fill="#23356D"/>
<path d="M73.7604 94.4617C73.674 90.9185 76.7506 88.2222 79.9827 88.2222C82.9382 88.2222 86.153 90.5901 86.1703 94.4444C86.1876 97.9012 83.3876 100.701 79.9308 100.667C75.8345 100.615 73.6222 97.158 73.7604 94.4617Z" fill="#23356D"/>
<path d="M80 58.6669V63.2126C80 66.7039 77.1481 69.6249 73.6568 69.5558C70.2691 69.4867 67.5555 66.7385 67.5555 63.3336V58.6669V40.1731C67.5555 40.0694 67.4864 40.0002 67.3827 40.0002H55.2839C55.1802 40.0002 55.1111 40.0694 55.1111 40.1731V58.6669V63.1262C55.1111 73.4447 63.3901 81.9657 73.7086 82.0002C84.0444 82.0348 92.4444 73.6694 92.4444 63.3336V58.6669H80Z" fill="#23356D"/>
<path d="M80 55.5557V24.6174C80 24.5137 80.0691 24.4446 80.1728 24.4446H92.2716C92.3753 24.4446 92.4444 24.5137 92.4444 24.6174V43.1112C92.4444 49.9903 86.879 55.5557 80 55.5557Z" fill="#F26F24"/>
<path d="M92.4444 5.77783H67.5555C60.6765 5.77783 55.1111 11.3433 55.1111 18.2223H92.4444V5.77783Z" fill="#F26F24"/>
<path d="M48.8889 69.5557V82.0001H24C17.121 82.0001 11.5555 76.4347 11.5555 69.5557H48.8889Z" fill="#23356D"/>
<path d="M36.4444 24.4448V27.0892V30.667V32.2225V36.8892V47.6571C36.4444 51.1484 33.5926 54.0694 30.1012 54.0003C26.7136 53.9312 24 51.183 24 47.7781V44.667V38.4448V32.2225V30.667V18.2225H11.5555V30.667V32.2225V38.4448V44.667V47.5707C11.5555 57.8892 19.8346 66.4102 30.1531 66.4447C40.4889 66.4793 48.8889 58.1139 48.8889 47.7781V37.062C48.8889 36.9583 48.958 36.8892 49.0617 36.8892H55.3531C62.0938 36.8892 67.5555 31.4275 67.5555 24.6867V24.4448H36.4444Z" fill="#F26F24"/>
</svg>
