<svg width="72" height="55" viewBox="0 0 72 55" fill="none" xmlns="http://www.w3.org/2000/svg">
<g id="LTR arrow" clip-path="url(#clip0_1177_5355)">
<path id="Arrow 06" d="M11.0283 46.6525C10.3754 44.4594 9.69985 42.3452 8.98386 39.9249C7.74078 40.8403 7.4308 42.0737 7.63782 43.1403C8.25887 46.3403 8.95955 49.5603 9.94429 52.6821C10.4997 54.4702 12.1602 54.6318 13.459 53.2229C15.6598 50.8979 17.7239 48.4541 19.8676 46.0303C19.9924 45.8923 20.1683 45.7249 20.1623 45.5965C20.2181 45.103 20.1431 44.6191 20.1192 44.1057C19.6759 44.164 19.1185 44.0245 18.8404 44.251C17.8528 45.0188 16.9734 45.8561 16.0655 46.6438C15.5604 47.0672 15.135 47.5106 14.1747 47.7355C14.3944 46.8179 14.5856 45.8508 14.8053 44.9332C20.1764 26.1481 36.9935 13.1438 56.7142 12.3678C59.2554 12.2845 61.7574 12.4875 64.3045 12.5326C65.1971 12.5444 66.0612 12.5068 66.9538 12.5187C67.0501 12.3313 67.0667 12.124 67.1629 11.9367C66.7528 11.5804 66.3593 11.0168 65.8303 10.9268C64.1068 10.5379 62.3833 10.1491 60.5921 9.9971C42.7822 8.41778 24.9518 18.2508 16.2153 34.6295C14.5507 37.7653 13.4496 41.1688 12.1321 44.4337C11.8493 45.1241 11.6973 45.8049 11.4942 46.5153C11.4205 46.6237 11.2387 46.6628 11.0283 46.6525Z" fill="#FF843C"/>
</g>
<defs>
<clipPath id="clip0_1177_5355">
<rect width="70" height="22" fill="white" transform="matrix(0.866025 -0.5 -0.5 -0.866025 11.0742 54.7882)"/>
</clipPath>
</defs>
</svg>
