<svg width="18" height="18" viewBox="0 0 18 18" fill="none" xmlns="http://www.w3.org/2000/svg">
<path d="M3.75 3.9375C3.43934 3.9375 3.1875 4.18934 3.1875 4.5C3.1875 4.81066 3.43934 5.0625 3.75 5.0625H14.25C14.5607 5.0625 14.8125 4.81066 14.8125 4.5C14.8125 4.18934 14.5607 3.9375 14.25 3.9375H3.75Z" fill="#404040"/>
<path d="M3.75 8.4375C3.43934 8.4375 3.1875 8.68934 3.1875 9C3.1875 9.31066 3.43934 9.5625 3.75 9.5625H14.25C14.5607 9.5625 14.8125 9.31066 14.8125 9C14.8125 8.68934 14.5607 8.4375 14.25 8.4375H3.75Z" fill="#404040"/>
<path d="M3.75 12.9375C3.43934 12.9375 3.1875 13.1893 3.1875 13.5C3.1875 13.8107 3.43934 14.0625 3.75 14.0625H14.25C14.5607 14.0625 14.8125 13.8107 14.8125 13.5C14.8125 13.1893 14.5607 12.9375 14.25 12.9375H3.75Z" fill="#404040"/>
<path d="M3.75 3.9375C3.43934 3.9375 3.1875 4.18934 3.1875 4.5C3.1875 4.81066 3.43934 5.0625 3.75 5.0625H14.25C14.5607 5.0625 14.8125 4.81066 14.8125 4.5C14.8125 4.18934 14.5607 3.9375 14.25 3.9375H3.75Z" stroke="#404040"/>
<path d="M3.75 8.4375C3.43934 8.4375 3.1875 8.68934 3.1875 9C3.1875 9.31066 3.43934 9.5625 3.75 9.5625H14.25C14.5607 9.5625 14.8125 9.31066 14.8125 9C14.8125 8.68934 14.5607 8.4375 14.25 8.4375H3.75Z" stroke="#404040"/>
<path d="M3.75 12.9375C3.43934 12.9375 3.1875 13.1893 3.1875 13.5C3.1875 13.8107 3.43934 14.0625 3.75 14.0625H14.25C14.5607 14.0625 14.8125 13.8107 14.8125 13.5C14.8125 13.1893 14.5607 12.9375 14.25 12.9375H3.75Z" stroke="#404040"/>
</svg>
