<svg width="20" height="18" viewBox="0 0 20 18" fill="none" xmlns="http://www.w3.org/2000/svg">
<path d="M2.17336 3.70687C1.66666 4.7798 1.66666 6.31171 1.66666 9C1.66666 12.1248 1.66666 13.6872 2.46242 14.7824C2.71942 15.1362 3.03049 15.4472 3.38422 15.7042C4.47949 16.5 6.04188 16.5 9.16666 16.5H10.8333C13.9581 16.5 15.5205 16.5 16.6158 15.7042C16.9695 15.4472 17.2806 15.1362 17.5376 14.7824C18.3333 13.6872 18.3333 12.1248 18.3333 9C18.3333 6.29271 18.3333 4.75821 17.8158 3.68419M2.17336 3.70687C2.25563 3.53266 2.35126 3.37055 2.46242 3.21756C2.71942 2.86383 3.03049 2.55276 3.38422 2.29576C4.47949 1.5 6.04188 1.5 9.16666 1.5H10.8333C13.9581 1.5 15.5205 1.5 16.6158 2.29576C16.9695 2.55276 17.2806 2.86383 17.5376 3.21756C17.6439 3.3639 17.736 3.51857 17.8158 3.68419M2.17336 3.70687L2.49999 4L4.10743 5.60744C6.88521 8.38522 8.2741 9.77411 9.99999 9.77411C11.7259 9.77411 13.1148 8.38522 15.8925 5.60745L17.5 4L17.8158 3.68419" stroke="#737373" stroke-width="1.5"/>
</svg>
