<svg width="25" height="24" viewBox="0 0 25 24" fill="none" xmlns="http://www.w3.org/2000/svg">
<path d="M13.0223 13.2148L13.0057 13.2057C12.2871 12.8107 11.6959 12.2195 11.3009 11.501L11.2917 11.4844L11.3023 11.4686L12.3389 9.9149L13.0223 13.2148ZM13.0223 13.2148L13.0381 13.2043M13.0223 13.2148L13.0381 13.2043M13.0381 13.2043L14.5919 12.1677L13.0381 13.2043ZM10.6974 5.71542L10.6973 5.71531C10.6297 5.57889 10.5253 5.46411 10.3959 5.384C10.2664 5.30388 10.1171 5.26162 9.96483 5.26202H9.96475C8.85086 5.26202 7.78259 5.70447 6.99496 6.49203C6.20732 7.27959 5.76484 8.34774 5.76483 9.4615C5.76762 11.9209 6.74595 14.2788 8.48519 16.0179C10.2244 17.757 12.5825 18.7352 15.0422 18.738C15.5937 18.738 16.1399 18.6294 16.6494 18.4183C17.159 18.2073 17.622 17.8979 18.012 17.508C18.402 17.118 18.7113 16.6551 18.9224 16.1455C19.1335 15.636 19.2421 15.0899 19.2421 14.5384C19.2422 14.387 19.2001 14.2386 19.1206 14.1098C19.0411 13.981 18.9272 13.8768 18.7918 13.8091L15.4069 12.1168C15.2786 12.0529 15.1357 12.0239 14.9926 12.0329C14.8495 12.0418 14.7113 12.0883 14.592 12.1677L10.6974 5.71542ZM10.6974 5.71542L12.3898 9.1C12.4538 9.2283 12.4827 9.37121 12.4738 9.51429C12.4648 9.65735 12.4183 9.79553 12.3389 9.91487L10.6974 5.71542ZM15.0421 17.1082C15.6371 17.1102 16.2143 16.9058 16.6754 16.5297C17.1365 16.1536 17.4527 15.6292 17.5702 15.046L17.575 15.0225L17.5536 15.0118L15.1206 13.7976L15.1044 13.7895L15.0894 13.7996L13.5441 14.8297C13.544 14.8297 13.544 14.8297 13.544 14.8297C13.431 14.9041 13.3013 14.9492 13.1665 14.961C13.0317 14.9727 12.896 14.9507 12.7719 14.8969L12.7716 14.8968C11.3401 14.2945 10.2013 13.1559 9.599 11.7245C9.54754 11.6008 9.5274 11.4662 9.54037 11.3328C9.55334 11.1994 9.59903 11.0712 9.67339 10.9597C9.6734 10.9597 9.67341 10.9597 9.67341 10.9596L10.7068 9.42185L10.717 9.40675L10.7088 9.39047L9.49449 6.95777L9.48382 6.9364L9.4604 6.94109C8.87778 7.05768 8.35356 7.37254 7.97696 7.83207C7.60035 8.29161 7.39463 8.86743 7.3948 9.46155V9.46157C7.39705 11.4889 8.20347 13.4325 9.63713 14.8661C11.0708 16.2996 13.0146 17.1059 15.0421 17.1082ZM15.0421 17.1082L15.0422 17.0769M15.0421 17.1082C15.0421 17.1082 15.0421 17.1082 15.0421 17.1082L15.0422 17.0769M15.0422 17.0769C15.6299 17.0789 16.2002 16.877 16.6557 16.5055C17.1111 16.134 17.4235 15.616 17.5396 15.0398L9.65923 14.844C11.087 16.2716 13.0229 17.0747 15.0422 17.0769ZM2.82044 17.1799L2.82468 17.1672L2.81838 17.1553C1.92824 15.4838 1.48607 13.6103 1.5349 11.7172C1.58373 9.8241 2.1219 7.97589 3.09702 6.35247C4.07215 4.72904 5.45101 3.3857 7.0994 2.45321C8.74779 1.52072 10.6095 1.03084 12.5034 1.03125C14.1698 1.03193 15.8141 1.41219 17.3115 2.14316C18.8089 2.87413 20.1201 3.93659 21.1456 5.24991C22.171 6.56323 22.8838 8.09288 23.2297 9.72276C23.5757 11.3526 23.5457 13.0399 23.1422 14.6565C22.7386 16.2731 21.972 17.7765 20.9006 19.0526C19.8292 20.3287 18.4811 21.344 16.9587 22.0214C15.4363 22.6987 13.7796 23.0204 12.1143 22.962C10.4489 22.9036 8.81882 22.4666 7.34763 21.6841L7.3358 21.6778L7.32308 21.6821L3.72129 22.8826C3.42859 22.9802 3.11448 22.9943 2.81418 22.9235C2.51388 22.8526 2.23926 22.6995 2.02108 22.4814C1.8029 22.2632 1.6498 21.9886 1.57893 21.6883C1.50806 21.3881 1.52223 21.074 1.61984 20.7813L1.5902 20.7714L1.61984 20.7813L2.82044 17.1799ZM7.82714 20.0856L7.82717 20.0856C9.24842 20.9077 10.8615 21.3401 12.5035 21.3389C14.5597 21.3386 16.5584 20.6598 18.1895 19.4077C19.8205 18.1557 20.9927 16.4004 21.5243 14.4142C22.0559 12.428 21.917 10.322 21.1294 8.42271C20.3417 6.52346 18.9493 4.93721 17.168 3.91002C15.3867 2.88283 13.3162 2.47213 11.2777 2.74163C9.23918 3.01113 7.34658 3.94576 5.8935 5.40054C4.44042 6.85532 3.50809 8.74892 3.24114 10.7876C2.97419 12.8263 3.38754 14.896 4.41708 16.6758C4.47483 16.7758 4.51068 16.8869 4.52227 17.0017C4.53387 17.1165 4.52092 17.2325 4.4843 17.342L4.4843 17.342L3.16523 21.2978L3.14545 21.3571L3.20476 21.3373L7.16089 20.0173C7.1609 20.0173 7.1609 20.0173 7.16091 20.0173C7.27046 19.9809 7.3865 19.9681 7.50135 19.9799C7.61621 19.9916 7.72726 20.0277 7.82714 20.0856Z" fill="#404040" stroke="#404040" stroke-width="0.0625"/>
</svg>
