<svg width="21" height="20" viewBox="0 0 21 20" fill="none" xmlns="http://www.w3.org/2000/svg">
<path d="M3.56107 18.0451L3.12023 18.6518L3.56107 18.0451ZM2.45491 16.9389L1.84815 17.3798H1.84815L2.45491 16.9389ZM18.5451 16.9389L17.9383 16.4981L18.5451 16.9389ZM17.4389 18.0451L16.9981 17.4383L17.4389 18.0451ZM17.4389 1.95491L16.9981 2.56168L17.4389 1.95491ZM18.5451 3.06107L17.9383 3.50191L18.5451 3.06107ZM3.56107 1.95491L4.00191 2.56168L3.56107 1.95491ZM2.45491 3.06107L3.06168 3.50191L2.45491 3.06107ZM3.50344 17.8325L2.75408 17.8016L2.75344 17.8171V17.8325H3.50344ZM17.4905 17.7225L18.2401 17.6969L18.2396 17.6841L18.2388 17.6712L17.4905 17.7225ZM13.75 7C13.75 8.79493 12.2949 10.25 10.5 10.25V11.75C13.1234 11.75 15.25 9.62335 15.25 7H13.75ZM10.5 10.25C8.70507 10.25 7.25 8.79493 7.25 7H5.75C5.75 9.62335 7.87665 11.75 10.5 11.75V10.25ZM7.25 7C7.25 5.20507 8.70507 3.75 10.5 3.75V2.25C7.87665 2.25 5.75 4.37665 5.75 7H7.25ZM10.5 3.75C12.2949 3.75 13.75 5.20507 13.75 7H15.25C15.25 4.37665 13.1234 2.25 10.5 2.25V3.75ZM10.5 18.25C8.60843 18.25 7.24999 18.249 6.19804 18.135C5.16013 18.0225 4.50992 17.8074 4.00191 17.4383L3.12023 18.6518C3.92656 19.2377 4.87094 19.5 6.03648 19.6263C7.18798 19.751 8.64184 19.75 10.5 19.75V18.25ZM0.75 10C0.75 11.8582 0.748971 13.312 0.873728 14.4635C1.00001 15.6291 1.26232 16.5734 1.84815 17.3798L3.06168 16.4981C2.69259 15.9901 2.47745 15.3399 2.365 14.302C2.25103 13.25 2.25 11.8916 2.25 10H0.75ZM18.75 10C18.75 11.8916 18.749 13.25 18.635 14.302C18.5225 15.3399 18.3074 15.9901 17.9383 16.4981L19.1518 17.3798C19.7377 16.5734 20 15.6291 20.1263 14.4635C20.251 13.312 20.25 11.8582 20.25 10H18.75ZM10.5 19.75C12.3582 19.75 13.812 19.751 14.9635 19.6263C16.1291 19.5 17.0734 19.2377 17.8798 18.6518L16.9981 17.4383C16.4901 17.8074 15.8399 18.0225 14.802 18.135C13.75 18.249 12.3916 18.25 10.5 18.25V19.75ZM10.5 1.75C12.3916 1.75 13.75 1.75103 14.802 1.865C15.8399 1.97745 16.4901 2.19259 16.9981 2.56168L17.8798 1.34815C17.0734 0.762324 16.1291 0.500006 14.9635 0.373728C13.812 0.248971 12.3582 0.25 10.5 0.25V1.75ZM20.25 10C20.25 8.14184 20.251 6.68798 20.1263 5.53648C20 4.37094 19.7377 3.42656 19.1518 2.62023L17.9383 3.50191C18.3074 4.00992 18.5225 4.66013 18.635 5.69804C18.749 6.74999 18.75 8.10843 18.75 10H20.25ZM16.9981 2.56168C17.3589 2.82382 17.6762 3.14111 17.9383 3.50191L19.1518 2.62023C18.7972 2.13209 18.3679 1.70281 17.8798 1.34815L16.9981 2.56168ZM10.5 0.25C8.64184 0.25 7.18798 0.248971 6.03648 0.373728C4.87094 0.500006 3.92656 0.762324 3.12023 1.34815L4.00191 2.56168C4.50992 2.19259 5.16013 1.97745 6.19804 1.865C7.24999 1.75103 8.60843 1.75 10.5 1.75V0.25ZM2.25 10C2.25 8.10843 2.25103 6.74999 2.365 5.69804C2.47745 4.66013 2.69259 4.00992 3.06168 3.50191L1.84815 2.62023C1.26232 3.42656 1.00001 4.37094 0.873728 5.53648C0.748971 6.68798 0.75 8.14184 0.75 10H2.25ZM3.12023 1.34815C2.63209 1.70281 2.20281 2.13209 1.84815 2.62023L3.06168 3.50191C3.32382 3.14111 3.64111 2.82382 4.00191 2.56168L3.12023 1.34815ZM7.5 14.75H13.5V13.25H7.5V14.75ZM7.5 13.25C4.9431 13.25 2.85837 15.27 2.75408 17.8016L4.25281 17.8634C4.32413 16.1321 5.75085 14.75 7.5 14.75V13.25ZM4.00191 17.4383C3.9855 17.4264 3.96917 17.4144 3.95293 17.4022L3.05396 18.603C3.07592 18.6194 3.09801 18.6357 3.12023 18.6518L4.00191 17.4383ZM3.95293 17.4022C3.61235 17.1472 3.31189 16.8425 3.06168 16.4981L1.84815 17.3798C2.18667 17.8457 2.59317 18.258 3.05396 18.603L3.95293 17.4022ZM2.75344 17.8325V18.0026H4.25344V17.8325H2.75344ZM13.5 14.75C15.2188 14.75 16.6265 16.0848 16.7423 17.7738L18.2388 17.6712C18.0695 15.2009 16.0129 13.25 13.5 13.25V14.75ZM17.9383 16.4981C17.6888 16.8415 17.3894 17.1455 17.05 17.4L17.95 18.6C18.4092 18.2556 18.8143 17.8444 19.1518 17.3798L17.9383 16.4981ZM17.05 17.4C17.0328 17.4129 17.0155 17.4257 16.9981 17.4383L17.8798 18.6518C17.9033 18.6347 17.9267 18.6175 17.95 18.6L17.05 17.4ZM16.741 17.7481L16.7504 18.0256L18.2496 17.9744L18.2401 17.6969L16.741 17.7481Z" fill="#737373"/>
</svg>
