<svg width="25" height="24" viewBox="0 0 25 24" fill="none" xmlns="http://www.w3.org/2000/svg">
<path d="M13.6815 10.5949L8.45039 3.27491C8.38973 3.18987 8.30956 3.12054 8.21658 3.07272C8.1236 3.02489 8.02051 2.99996 7.91591 3H5.15497C5.03463 3.00015 4.91665 3.03335 4.81395 3.09596C4.71126 3.15857 4.6278 3.24818 4.57272 3.35497C4.51764 3.46176 4.49307 3.58162 4.50168 3.70142C4.5103 3.82122 4.55178 3.93634 4.62158 4.03418L11.3185 13.4051M13.6815 10.5949L20.3784 19.9658C20.4482 20.0637 20.4897 20.1788 20.4983 20.2986C20.5069 20.4184 20.4824 20.5382 20.4273 20.645C20.3722 20.7518 20.2887 20.8414 20.186 20.904C20.0834 20.9666 19.9654 20.9998 19.845 21H17.0841C16.9795 21 16.8764 20.9751 16.7834 20.9273C16.6904 20.8795 16.6103 20.8101 16.5496 20.7251L11.3185 13.4051M13.6815 10.5949L20.0669 3M11.3185 13.4051L4.93308 21" stroke="#404040" stroke-width="1.5" stroke-linecap="round" stroke-linejoin="round"/>
</svg>
