<svg width="20" height="20" viewBox="0 0 20 20" fill="none" xmlns="http://www.w3.org/2000/svg">
<path d="M4.55995 11.5H3.35284L4.2064 12.3536L7.4264 15.5736L7.43264 15.5798L7.43909 15.5858C7.46365 15.6087 7.48335 15.6363 7.49702 15.667C7.51068 15.6976 7.51803 15.7307 7.51862 15.7643C7.51921 15.7979 7.51304 15.8312 7.50046 15.8623C7.48789 15.8935 7.46917 15.9217 7.44544 15.9455C7.42169 15.9692 7.39341 15.9879 7.36229 16.0005C7.33116 16.0131 7.29782 16.0193 7.26425 16.0187C7.23068 16.0181 7.19757 16.0107 7.16691 15.9971C7.13624 15.9834 7.10864 15.9637 7.08575 15.9391L7.07974 15.9327L7.0735 15.9264L2.57372 11.4267C2.57368 11.4266 2.57364 11.4266 2.5736 11.4265C2.52686 11.3797 2.50061 11.3162 2.50061 11.25C2.50061 11.1838 2.52686 11.1203 2.5736 11.0735C2.57364 11.0734 2.57368 11.0734 2.57372 11.0733L7.06559 6.58146C7.11238 6.54007 7.17304 6.51764 7.23565 6.51875C7.30042 6.51989 7.36222 6.54613 7.40802 6.59193C7.45382 6.63774 7.48006 6.69953 7.4812 6.7643C7.48231 6.82691 7.45988 6.88757 7.41849 6.93435L4.2064 10.1464L3.35284 11H4.55995H10.75C12.4076 11 13.9973 10.3415 15.1694 9.16942C16.3415 7.99731 17 6.4076 17 4.75C17 4.68369 17.0263 4.62011 17.0732 4.57322C17.1201 4.52634 17.1836 4.5 17.25 4.5C17.3163 4.5 17.3798 4.52634 17.4267 4.57322C17.4736 4.62011 17.5 4.68369 17.5 4.75C17.5 6.54021 16.7888 8.2571 15.5229 9.52297C14.2571 10.7888 12.5402 11.5 10.75 11.5H4.55995Z" fill="black" stroke="#404040"/>
</svg>
