<svg width="24" height="24" viewBox="0 0 24 24" fill="none" xmlns="http://www.w3.org/2000/svg">
<mask id="path-1-inside-1_1424_630" fill="white">
<path d="M12.001 9C11.2054 9 10.4423 9.31607 9.87968 9.87868C9.31707 10.4413 9.001 11.2044 9.001 12C9.001 12.7956 9.31707 13.5587 9.87968 14.1213C10.4423 14.6839 11.2054 15 12.001 15C12.7966 15 13.5597 14.6839 14.1223 14.1213C14.6849 13.5587 15.001 12.7956 15.001 12C15.001 11.2044 14.6849 10.4413 14.1223 9.87868C13.5597 9.31607 12.7966 9 12.001 9ZM12.001 7C13.3271 7 14.5989 7.52678 15.5365 8.46447C16.4742 9.40215 17.001 10.6739 17.001 12C17.001 13.3261 16.4742 14.5979 15.5365 15.5355C14.5989 16.4732 13.3271 17 12.001 17C10.6749 17 9.40315 16.4732 8.46547 15.5355C7.52778 14.5979 7.001 13.3261 7.001 12C7.001 10.6739 7.52778 9.40215 8.46547 8.46447C9.40315 7.52678 10.6749 7 12.001 7ZM18.501 6.75C18.501 7.08152 18.3693 7.39946 18.1349 7.63388C17.9005 7.8683 17.5825 8 17.251 8C16.9195 8 16.6015 7.8683 16.3671 7.63388C16.1327 7.39946 16.001 7.08152 16.001 6.75C16.001 6.41848 16.1327 6.10054 16.3671 5.86612C16.6015 5.6317 16.9195 5.5 17.251 5.5C17.5825 5.5 17.9005 5.6317 18.1349 5.86612C18.3693 6.10054 18.501 6.41848 18.501 6.75ZM12.001 4C9.527 4 9.123 4.007 7.972 4.058C7.188 4.095 6.662 4.2 6.174 4.39C5.76583 4.54037 5.39672 4.78063 5.094 5.093C4.78127 5.39562 4.54066 5.76474 4.39 6.173C4.2 6.663 4.095 7.188 4.059 7.971C4.007 9.075 4 9.461 4 12C4 14.475 4.007 14.878 4.058 16.029C4.095 16.812 4.2 17.339 4.389 17.826C4.559 18.261 4.759 18.574 5.091 18.906C5.428 19.242 5.741 19.443 6.171 19.609C6.665 19.8 7.191 19.906 7.971 19.942C9.075 19.994 9.461 20 12 20C14.475 20 14.878 19.993 16.029 19.942C16.811 19.905 17.337 19.8 17.826 19.611C18.2342 19.4606 18.6033 19.2204 18.906 18.908C19.243 18.572 19.444 18.259 19.61 17.828C19.8 17.336 19.906 16.81 19.942 16.028C19.994 14.925 20 14.538 20 12C20 9.526 19.993 9.122 19.942 7.971C19.905 7.189 19.799 6.661 19.61 6.173C19.4596 5.76483 19.2194 5.39572 18.907 5.093C18.6044 4.78027 18.2353 4.53966 17.827 4.389C17.337 4.199 16.811 4.094 16.029 4.058C14.926 4.006 14.54 4 12 4M12 2C14.717 2 15.056 2.01 16.123 2.06C17.187 2.11 17.913 2.277 18.55 2.525C19.21 2.779 19.766 3.123 20.322 3.678C20.8307 4.17773 21.2242 4.78247 21.475 5.45C21.722 6.087 21.89 6.813 21.94 7.878C21.987 8.944 22 9.283 22 12C22 14.717 21.99 15.056 21.94 16.122C21.89 17.188 21.722 17.912 21.475 18.55C21.2242 19.2175 20.8307 19.8223 20.322 20.322C19.8223 20.8307 19.2175 21.2242 18.55 21.475C17.913 21.722 17.187 21.89 16.123 21.94C15.056 21.987 14.717 22 12 22C9.283 22 8.944 21.99 7.877 21.94C6.813 21.89 6.088 21.722 5.45 21.475C4.78247 21.2242 4.17773 20.8307 3.678 20.322C3.16931 19.8223 2.77582 19.2175 2.525 18.55C2.277 17.913 2.11 17.187 2.06 16.122C2.012 15.056 2 14.717 2 12C2 9.283 2.01 8.944 2.06 7.878C2.11 6.812 2.277 6.088 2.525 5.45C2.77582 4.78247 3.16931 4.17773 3.678 3.678C4.17773 3.16931 4.78247 2.77582 5.45 2.525C6.087 2.277 6.812 2.11 7.877 2.06C8.945 2.013 9.284 2 12.001 2"/>
</mask>
<path d="M12.001 9C11.2054 9 10.4423 9.31607 9.87968 9.87868C9.31707 10.4413 9.001 11.2044 9.001 12C9.001 12.7956 9.31707 13.5587 9.87968 14.1213C10.4423 14.6839 11.2054 15 12.001 15C12.7966 15 13.5597 14.6839 14.1223 14.1213C14.6849 13.5587 15.001 12.7956 15.001 12C15.001 11.2044 14.6849 10.4413 14.1223 9.87868C13.5597 9.31607 12.7966 9 12.001 9ZM12.001 7C13.3271 7 14.5989 7.52678 15.5365 8.46447C16.4742 9.40215 17.001 10.6739 17.001 12C17.001 13.3261 16.4742 14.5979 15.5365 15.5355C14.5989 16.4732 13.3271 17 12.001 17C10.6749 17 9.40315 16.4732 8.46547 15.5355C7.52778 14.5979 7.001 13.3261 7.001 12C7.001 10.6739 7.52778 9.40215 8.46547 8.46447C9.40315 7.52678 10.6749 7 12.001 7ZM18.501 6.75C18.501 7.08152 18.3693 7.39946 18.1349 7.63388C17.9005 7.8683 17.5825 8 17.251 8C16.9195 8 16.6015 7.8683 16.3671 7.63388C16.1327 7.39946 16.001 7.08152 16.001 6.75C16.001 6.41848 16.1327 6.10054 16.3671 5.86612C16.6015 5.6317 16.9195 5.5 17.251 5.5C17.5825 5.5 17.9005 5.6317 18.1349 5.86612C18.3693 6.10054 18.501 6.41848 18.501 6.75ZM12.001 4C9.527 4 9.123 4.007 7.972 4.058C7.188 4.095 6.662 4.2 6.174 4.39C5.76583 4.54037 5.39672 4.78063 5.094 5.093C4.78127 5.39562 4.54066 5.76474 4.39 6.173C4.2 6.663 4.095 7.188 4.059 7.971C4.007 9.075 4 9.461 4 12C4 14.475 4.007 14.878 4.058 16.029C4.095 16.812 4.2 17.339 4.389 17.826C4.559 18.261 4.759 18.574 5.091 18.906C5.428 19.242 5.741 19.443 6.171 19.609C6.665 19.8 7.191 19.906 7.971 19.942C9.075 19.994 9.461 20 12 20C14.475 20 14.878 19.993 16.029 19.942C16.811 19.905 17.337 19.8 17.826 19.611C18.2342 19.4606 18.6033 19.2204 18.906 18.908C19.243 18.572 19.444 18.259 19.61 17.828C19.8 17.336 19.906 16.81 19.942 16.028C19.994 14.925 20 14.538 20 12C20 9.526 19.993 9.122 19.942 7.971C19.905 7.189 19.799 6.661 19.61 6.173C19.4596 5.76483 19.2194 5.39572 18.907 5.093C18.6044 4.78027 18.2353 4.53966 17.827 4.389C17.337 4.199 16.811 4.094 16.029 4.058C14.926 4.006 14.54 4 12 4M12 2C14.717 2 15.056 2.01 16.123 2.06C17.187 2.11 17.913 2.277 18.55 2.525C19.21 2.779 19.766 3.123 20.322 3.678C20.8307 4.17773 21.2242 4.78247 21.475 5.45C21.722 6.087 21.89 6.813 21.94 7.878C21.987 8.944 22 9.283 22 12C22 14.717 21.99 15.056 21.94 16.122C21.89 17.188 21.722 17.912 21.475 18.55C21.2242 19.2175 20.8307 19.8223 20.322 20.322C19.8223 20.8307 19.2175 21.2242 18.55 21.475C17.913 21.722 17.187 21.89 16.123 21.94C15.056 21.987 14.717 22 12 22C9.283 22 8.944 21.99 7.877 21.94C6.813 21.89 6.088 21.722 5.45 21.475C4.78247 21.2242 4.17773 20.8307 3.678 20.322C3.16931 19.8223 2.77582 19.2175 2.525 18.55C2.277 17.913 2.11 17.187 2.06 16.122C2.012 15.056 2 14.717 2 12C2 9.283 2.01 8.944 2.06 7.878C2.11 6.812 2.277 6.088 2.525 5.45C2.77582 4.78247 3.16931 4.17773 3.678 3.678C4.17773 3.16931 4.78247 2.77582 5.45 2.525C6.087 2.277 6.812 2.11 7.877 2.06C8.945 2.013 9.284 2 12.001 2" fill="#404040"/>
<path d="M12.001 15V16V15ZM12.001 7V6V7ZM17.001 12H16.001H17.001ZM12.001 17V16V17ZM7.972 4.058L7.92773 3.05898L7.92486 3.05911L7.972 4.058ZM6.174 4.39L6.51969 5.32835L6.52828 5.32518L6.53681 5.32186L6.174 4.39ZM5.094 5.093L5.7894 5.81162L5.80093 5.80046L5.81211 5.78893L5.094 5.093ZM4.39 6.173L5.32236 6.53453L5.32532 6.52689L5.32816 6.51921L4.39 6.173ZM4.059 7.971L5.05789 8.01805L5.05794 8.01693L4.059 7.971ZM4.058 16.029L3.05898 16.0733L3.05911 16.0762L4.058 16.029ZM4.389 17.826L3.45674 18.1878L3.4576 18.19L4.389 17.826ZM5.091 18.906L4.38389 19.6131L4.38494 19.6142L5.091 18.906ZM6.171 19.609L6.53162 18.6763L6.53114 18.6761L6.171 19.609ZM7.971 19.942L8.01805 18.9431L8.01711 18.9431L7.971 19.942ZM16.029 19.942L16.0733 20.941L16.0763 20.9409L16.029 19.942ZM17.826 19.611L17.4803 18.6727L17.4729 18.6754L17.4655 18.6782L17.826 19.611ZM18.906 18.908L18.1999 18.1998L18.1939 18.2059L18.1879 18.2121L18.906 18.908ZM19.61 17.828L18.6771 17.4677L18.6768 17.4686L19.61 17.828ZM19.942 16.028L18.9431 15.9809L18.9431 15.982L19.942 16.028ZM19.942 7.971L20.941 7.92673L20.9409 7.92374L19.942 7.971ZM19.61 6.173L18.6717 6.51869L18.6745 6.52645L18.6775 6.53415L19.61 6.173ZM18.907 5.093L18.1884 5.7884L18.1995 5.79993L18.2111 5.81111L18.907 5.093ZM17.827 4.389L17.4655 5.32136L17.4731 5.32432L17.4808 5.32716L17.827 4.389ZM16.029 4.058L15.9819 5.05689L15.983 5.05694L16.029 4.058ZM16.123 2.06L16.1699 1.0611L16.1698 1.0611L16.123 2.06ZM18.55 2.525L18.1872 3.45687L18.1908 3.45827L18.55 2.525ZM20.322 3.678L19.6155 4.38577L19.6212 4.39136L20.322 3.678ZM21.475 5.45L20.5388 5.80175L20.5426 5.81153L21.475 5.45ZM21.94 7.878L22.939 7.83395L22.9389 7.8311L21.94 7.878ZM21.475 18.55L20.5424 18.1889L20.5389 18.1983L21.475 18.55ZM20.322 20.322L19.6212 19.6086L19.6149 19.6149L19.6086 19.6212L20.322 20.322ZM18.55 21.475L18.1982 20.5388L18.1885 20.5426L18.55 21.475ZM16.123 21.94L16.167 22.939L16.1699 22.9389L16.123 21.94ZM7.877 21.94L7.83006 22.9389L7.83019 22.9389L7.877 21.94ZM5.45 21.475L5.81105 20.5424L5.80173 20.5389L5.45 21.475ZM3.678 20.322L4.39136 19.6212L4.38513 19.6149L4.3788 19.6086L3.678 20.322ZM2.525 18.55L3.46117 18.1982L3.45687 18.1872L2.525 18.55ZM2.06 16.122L1.06101 16.167L1.0611 16.1689L2.06 16.122ZM2.525 5.45L3.45712 5.81233L3.4611 5.80173L2.525 5.45ZM3.678 3.678L4.3788 4.39136L4.38513 4.38513L4.39136 4.3788L3.678 3.678ZM5.45 2.525L5.80175 3.46117L5.8128 3.45687L5.45 2.525ZM7.877 2.06L7.83303 1.06096L7.8301 1.0611L7.877 2.06ZM12.001 8C10.9401 8 9.92272 8.42143 9.17257 9.17157L10.5868 10.5858C10.9619 10.2107 11.4706 10 12.001 10V8ZM9.17257 9.17157C8.42243 9.92172 8.001 10.9391 8.001 12H10.001C10.001 11.4696 10.2117 10.9609 10.5868 10.5858L9.17257 9.17157ZM8.001 12C8.001 13.0609 8.42243 14.0783 9.17257 14.8284L10.5868 13.4142C10.2117 13.0391 10.001 12.5304 10.001 12H8.001ZM9.17257 14.8284C9.92272 15.5786 10.9401 16 12.001 16V14C11.4706 14 10.9619 13.7893 10.5868 13.4142L9.17257 14.8284ZM12.001 16C13.0619 16 14.0793 15.5786 14.8294 14.8284L13.4152 13.4142C13.0401 13.7893 12.5314 14 12.001 14V16ZM14.8294 14.8284C15.5796 14.0783 16.001 13.0609 16.001 12H14.001C14.001 12.5304 13.7903 13.0391 13.4152 13.4142L14.8294 14.8284ZM16.001 12C16.001 10.9391 15.5796 9.92172 14.8294 9.17157L13.4152 10.5858C13.7903 10.9609 14.001 11.4696 14.001 12H16.001ZM14.8294 9.17157C14.0793 8.42143 13.0619 8 12.001 8V10C12.5314 10 13.0401 10.2107 13.4152 10.5858L14.8294 9.17157ZM12.001 8C13.0619 8 14.0793 8.42143 14.8294 9.17157L16.2436 7.75736C15.1184 6.63214 13.5923 6 12.001 6V8ZM14.8294 9.17157C15.5796 9.92172 16.001 10.9391 16.001 12H18.001C18.001 10.4087 17.3689 8.88258 16.2436 7.75736L14.8294 9.17157ZM16.001 12C16.001 13.0609 15.5796 14.0783 14.8294 14.8284L16.2436 16.2426C17.3689 15.1174 18.001 13.5913 18.001 12H16.001ZM14.8294 14.8284C14.0793 15.5786 13.0619 16 12.001 16V18C13.5923 18 15.1184 17.3679 16.2436 16.2426L14.8294 14.8284ZM12.001 16C10.9401 16 9.92272 15.5786 9.17257 14.8284L7.75836 16.2426C8.88358 17.3679 10.4097 18 12.001 18V16ZM9.17257 14.8284C8.42243 14.0783 8.001 13.0609 8.001 12H6.001C6.001 13.5913 6.63314 15.1174 7.75836 16.2426L9.17257 14.8284ZM8.001 12C8.001 10.9391 8.42243 9.92172 9.17257 9.17157L7.75836 7.75736C6.63314 8.88258 6.001 10.4087 6.001 12H8.001ZM9.17257 9.17157C9.92272 8.42143 10.9401 8 12.001 8V6C10.4097 6 8.88358 6.63214 7.75836 7.75736L9.17257 9.17157ZM17.501 6.75C17.501 6.81631 17.4747 6.87989 17.4278 6.92678L18.842 8.34099C19.2639 7.91903 19.501 7.34674 19.501 6.75H17.501ZM17.4278 6.92678C17.3809 6.97366 17.3173 7 17.251 7V9C17.8477 9 18.42 8.76295 18.842 8.34099L17.4278 6.92678ZM17.251 7C17.1847 7 17.1211 6.97366 17.0742 6.92678L15.66 8.34099C16.082 8.76295 16.6543 9 17.251 9V7ZM17.0742 6.92678C17.0273 6.87989 17.001 6.8163 17.001 6.75H15.001C15.001 7.34674 15.2381 7.91903 15.66 8.34099L17.0742 6.92678ZM17.001 6.75C17.001 6.6837 17.0273 6.62011 17.0742 6.57322L15.66 5.15901C15.2381 5.58097 15.001 6.15326 15.001 6.75H17.001ZM17.0742 6.57322C17.1211 6.52634 17.1847 6.5 17.251 6.5V4.5C16.6543 4.5 16.082 4.73705 15.66 5.15901L17.0742 6.57322ZM17.251 6.5C17.3173 6.5 17.3809 6.52634 17.4278 6.57322L18.842 5.15901C18.42 4.73705 17.8477 4.5 17.251 4.5V6.5ZM17.4278 6.57322C17.4747 6.62011 17.501 6.68369 17.501 6.75H19.501C19.501 6.15326 19.2639 5.58097 18.842 5.15901L17.4278 6.57322ZM12.001 3C9.5239 3 9.10176 3.00696 7.92773 3.05898L8.01627 5.05702C9.14424 5.00704 9.5301 5 12.001 5V3ZM7.92486 3.05911C7.06647 3.09962 6.42739 3.21822 5.81118 3.45814L6.53681 5.32186C6.89661 5.18178 7.30953 5.09038 8.01914 5.05689L7.92486 3.05911ZM5.82831 3.45165C5.27939 3.65387 4.783 3.97699 4.37589 4.39707L5.81211 5.78893C6.01044 5.58428 6.25227 5.42687 6.51969 5.32835L5.82831 3.45165ZM4.3986 4.37438C3.97804 4.78135 3.65446 5.27775 3.45184 5.82679L5.32816 6.51921C5.42687 6.25173 5.58451 6.00989 5.7894 5.81162L4.3986 4.37438ZM3.45764 5.81147C3.21832 6.42865 3.09954 7.06626 3.06006 7.92507L5.05794 8.01693C5.09046 7.30974 5.18168 6.89735 5.32236 6.53453L3.45764 5.81147ZM3.06011 7.92395C3.00693 9.05297 3 9.45885 3 12H5C5 9.46315 5.00707 9.09703 5.05789 8.01805L3.06011 7.92395ZM3 12C3 14.4781 3.00696 14.8992 3.05898 16.0733L5.05702 15.9847C5.00704 14.8568 5 14.4719 5 12H3ZM3.05911 16.0762C3.09962 16.9334 3.21815 17.573 3.45674 18.1878L5.32126 17.4642C5.18185 17.105 5.09038 16.6906 5.05689 15.9818L3.05911 16.0762ZM3.4576 18.19C3.67569 18.7481 3.9501 19.1793 4.38389 19.6131L5.79811 18.1989C5.5679 17.9687 5.44231 17.7739 5.3204 17.462L3.4576 18.19ZM4.38494 19.6142C4.82088 20.0488 5.25185 20.3261 5.81086 20.5419L6.53114 18.6761C6.23015 18.5599 6.03512 18.4352 5.79706 18.1978L4.38494 19.6142ZM5.81038 20.5417C6.4297 20.7812 7.06731 20.9014 7.9249 20.9409L8.01711 18.9431C7.31469 18.9106 6.9003 18.8188 6.53162 18.6763L5.81038 20.5417ZM7.92395 20.9409C9.05335 20.9941 9.45968 21 12 21V19C9.46232 19 9.09665 18.9939 8.01805 18.9431L7.92395 20.9409ZM12 21C14.4781 21 14.8992 20.993 16.0733 20.941L15.9847 18.943C14.8568 18.993 14.4719 19 12 19V21ZM16.0763 20.9409C16.9331 20.9003 17.5709 20.7817 18.1865 20.5438L17.4655 18.6782C17.1031 18.8183 16.6889 18.9097 15.9817 18.9431L16.0763 20.9409ZM18.1717 20.5493C18.7206 20.3471 19.217 20.024 19.6241 19.6039L18.1879 18.2121C17.9896 18.4167 17.7477 18.5741 17.4803 18.6727L18.1717 20.5493ZM19.6121 19.6162C20.0495 19.1801 20.3273 18.7479 20.5432 18.1874L18.6768 17.4686C18.5607 17.7701 18.4365 17.9639 18.1999 18.1998L19.6121 19.6162ZM20.5429 18.1882C20.7813 17.5708 20.9014 16.9332 20.9409 16.074L18.9431 15.982C18.9106 16.6868 18.8187 17.1012 18.6771 17.4677L20.5429 18.1882ZM20.9409 16.0751C20.9941 14.9467 21 14.5393 21 12H19C19 14.5367 18.9939 14.9033 18.9431 15.9809L20.9409 16.0751ZM21 12C21 9.5229 20.993 9.10076 20.941 7.92673L18.943 8.01527C18.993 9.14324 19 9.5291 19 12H21ZM20.9409 7.92374C20.9003 7.06632 20.7805 6.42635 20.5425 5.81185L18.6775 6.53415C18.8175 6.89565 18.9097 7.31168 18.9431 8.01826L20.9409 7.92374ZM20.5483 5.82731C20.3461 5.27839 20.023 4.782 19.6029 4.37489L18.2111 5.81111C18.4157 6.00944 18.5731 6.25127 18.6717 6.51869L20.5483 5.82731ZM19.6256 4.3976C19.2187 3.97704 18.7223 3.65346 18.1732 3.45084L17.4808 5.32716C17.7483 5.42587 17.9901 5.58351 18.1884 5.7884L19.6256 4.3976ZM18.1885 3.45664C17.5713 3.21729 16.9326 3.09854 16.075 3.05906L15.983 5.05694C16.6894 5.08946 17.1027 5.18071 17.4655 5.32136L18.1885 3.45664ZM16.0761 3.05911C14.9477 3.00591 14.5413 3 12 3V5C14.5387 5 14.9043 5.00609 15.9819 5.05689L16.0761 3.05911ZM12 3C14.7134 3 15.0334 3.01004 16.0762 3.0589L16.1698 1.0611C15.0786 1.00996 14.7206 1 12 1V3ZM16.0761 3.0589C17.0476 3.10455 17.6649 3.25352 18.1872 3.45687L18.9128 1.59313C18.1611 1.30048 17.3264 1.11545 16.1699 1.0611L16.0761 3.0589ZM18.1908 3.45827C18.7263 3.66436 19.1626 3.93359 19.6155 4.38574L21.0285 2.97026C20.3694 2.31241 19.6937 1.89364 18.9092 1.59173L18.1908 3.45827ZM19.6212 4.39136C20.0261 4.78911 20.3393 5.27043 20.5389 5.80173L22.4111 5.09827C22.1091 4.29451 21.6353 3.56636 21.0228 2.96464L19.6212 4.39136ZM20.5426 5.81153C20.7457 6.33531 20.8955 6.95328 20.9411 7.9249L22.9389 7.8311C22.8845 6.67272 22.6983 5.83869 22.4074 5.08847L20.5426 5.81153ZM20.941 7.92205C20.987 8.96679 21 9.28916 21 12H23C23 9.27684 22.987 8.92121 22.939 7.83395L20.941 7.92205ZM21 12C21 14.7134 20.99 15.0334 20.9411 16.0751L22.9389 16.1689C22.99 15.0786 23 14.7206 23 12H21ZM20.9411 16.0751C20.8955 17.0473 20.7459 17.6636 20.5424 18.189L22.4076 18.911C22.6981 18.1604 22.8845 17.3287 22.9389 16.1689L20.9411 16.0751ZM20.5389 18.1983C20.3393 18.7296 20.0261 19.2109 19.6212 19.6086L21.0228 21.0354C21.6353 20.4336 22.1091 19.7055 22.4111 18.9017L20.5389 18.1983ZM19.6086 19.6212C19.2109 20.0261 18.7296 20.3393 18.1983 20.5389L18.9017 22.4111C19.7055 22.1091 20.4336 21.6353 21.0354 21.0228L19.6086 19.6212ZM18.1885 20.5426C17.6646 20.7458 17.0466 20.8955 16.0761 20.9411L16.1699 22.9389C17.3274 22.8845 18.1614 22.6982 18.9115 22.4074L18.1885 20.5426ZM16.079 20.941C15.0332 20.987 14.7108 21 12 21V23C14.7232 23 15.0788 22.987 16.167 22.939L16.079 20.941ZM12 21C9.2866 21 8.96662 20.99 7.92381 20.9411L7.83019 22.9389C8.92138 22.99 9.2794 23 12 23V21ZM7.92394 20.9411C6.95365 20.8955 6.33641 20.7458 5.81103 20.5424L5.08896 22.4076C5.83959 22.6982 6.67235 22.8845 7.83006 22.9389L7.92394 20.9411ZM5.80173 20.5389C5.27043 20.3393 4.78911 20.0261 4.39136 19.6212L2.96464 21.0228C3.56636 21.6353 4.29451 22.1091 5.09827 22.4111L5.80173 20.5389ZM4.3788 19.6086C3.97392 19.2109 3.66073 18.7296 3.4611 18.1983L1.5889 18.9017C1.8909 19.7055 2.3647 20.4336 2.9772 21.0354L4.3788 19.6086ZM3.45687 18.1872C3.25354 17.6649 3.10456 17.0477 3.0589 16.0751L1.0611 16.1689C1.11544 17.3263 1.30046 18.1611 1.59313 18.9128L3.45687 18.1872ZM3.05899 16.077C3.01199 15.0333 3 14.7117 3 12H1C1 14.7223 1.01201 15.0787 1.06101 16.167L3.05899 16.077ZM3 12C3 9.28659 3.01004 8.96663 3.0589 7.92485L1.0611 7.83115C1.00996 8.92137 1 9.27941 1 12H3ZM3.0589 7.92485C3.10455 6.9517 3.25343 6.33617 3.45706 5.8123L1.59294 5.08769C1.30057 5.83983 1.11545 6.6723 1.0611 7.83115L3.0589 7.92485ZM3.4611 5.80173C3.66073 5.27043 3.97392 4.78911 4.3788 4.39136L2.9772 2.96464C2.3647 3.56636 1.8909 4.29451 1.5889 5.09827L3.4611 5.80173ZM4.39136 4.3788C4.78911 3.97392 5.27043 3.66073 5.80173 3.4611L5.09827 1.5889C4.29451 1.8909 3.56636 2.3647 2.96464 2.9772L4.39136 4.3788ZM5.8128 3.45687C6.3352 3.25348 6.95149 3.10455 7.9239 3.0589L7.8301 1.0611C6.67251 1.11545 5.8388 1.30052 5.0872 1.59313L5.8128 3.45687ZM7.92096 3.05903C8.96777 3.01297 9.29018 3 12.001 3V1C9.27782 1 8.92223 1.01303 7.83303 1.06097L7.92096 3.05903Z" fill="#404040" mask="url(#path-1-inside-1_1424_630)"/>
</svg>
