<svg width="59" height="28" viewBox="0 0 59 28" fill="none" xmlns="http://www.w3.org/2000/svg">
<path d="M5.474 21.304C5.01667 21.4067 4.60133 21.458 4.228 21.458C3.5 21.458 2.87 21.2947 2.338 20.968C1.806 20.6413 1.4 20.1793 1.12 19.582C0.84 18.9847 0.7 18.2893 0.7 17.496C0.7 16.6 0.877333 15.648 1.232 14.64L2.464 15.13C2.156 15.998 2.002 16.796 2.002 17.524C2.002 18.308 2.19333 18.9147 2.576 19.344C2.968 19.7827 3.51867 20.002 4.228 20.002C4.55467 20.002 4.872 19.9647 5.18 19.89C5.78667 19.75 6.24867 19.624 6.566 19.512C6.88333 19.4093 7.13067 19.274 7.308 19.106C7.48533 18.938 7.574 18.7187 7.574 18.448C7.574 18.392 7.56467 18.2987 7.546 18.168C7.49933 17.9253 7.10267 17.6593 6.356 17.37L5.362 17.048L5.768 15.676C5.84267 15.6947 6.006 15.7413 6.258 15.816C7.25667 16.1053 7.97533 16.3013 8.414 16.404C8.862 16.4973 9.30067 16.544 9.73 16.544L9.814 17.272L9.73 18C9.40333 18 9.09067 17.986 8.792 17.958C8.82 18.014 8.834 18.07 8.834 18.126C8.85267 18.3127 8.862 18.4433 8.862 18.518C8.862 19.2647 8.57733 19.848 8.008 20.268C7.43867 20.6973 6.594 21.0427 5.474 21.304ZM17.128 18C16.428 18 15.8633 17.7573 15.434 17.272C15.014 17.7573 14.4307 18 13.684 18C13.3387 18 13.0213 17.9347 12.732 17.804C12.452 17.6733 12.2093 17.4913 12.004 17.258C11.5747 17.7527 10.9913 18 10.254 18H9.59602V16.544H10.254C10.6927 16.544 10.9913 16.46 11.15 16.292C11.3087 16.124 11.3927 15.9047 11.402 15.634V15.55V13.814H12.62V15.55V15.634C12.6293 15.9233 12.7227 16.1473 12.9 16.306C13.0773 16.4647 13.3387 16.544 13.684 16.544C14.1413 16.544 14.4447 16.4507 14.594 16.264C14.7527 16.0773 14.832 15.8393 14.832 15.55V13.814H16.05V15.55V15.634C16.05 15.9233 16.1387 16.1473 16.316 16.306C16.5027 16.4647 16.7733 16.544 17.128 16.544C17.8933 16.544 18.276 16.222 18.276 15.578C18.276 15.382 18.2433 15.1673 18.178 14.934L17.618 12.848L18.878 12.484L19.438 14.57C19.5313 14.9153 19.578 15.2513 19.578 15.578C19.578 16.0727 19.466 16.5067 19.242 16.88C19.0273 17.244 18.7333 17.524 18.36 17.72C17.996 17.9067 17.5853 18 17.128 18ZM19.1816 20.184L19.8676 20.002C20.381 19.862 20.7776 19.7313 21.0576 19.61C21.347 19.4887 21.5756 19.3207 21.7436 19.106C21.921 18.9007 22.0096 18.6253 22.0096 18.28C22.0096 18.2147 22.0003 18.098 21.9816 17.93L21.4216 13.898L22.7096 13.702L23.1156 16.67L23.1576 16.964L23.2556 17.762C23.2836 17.986 23.2976 18.1913 23.2976 18.378C23.2976 19.218 23.0363 19.862 22.5136 20.31C22.0003 20.758 21.2303 21.122 20.2036 21.402L19.5176 21.584L19.1816 20.184ZM27.5417 18C26.9164 18 26.4217 17.9067 26.0577 17.72C25.6937 17.5333 25.4277 17.2347 25.2597 16.824C25.0917 16.404 24.9937 15.8253 24.9657 15.088L24.7137 8.648L26.0157 8.592L26.2677 15.088C26.2864 15.536 26.3237 15.858 26.3797 16.054C26.4451 16.2407 26.5571 16.3713 26.7157 16.446C26.8837 16.5113 27.1591 16.544 27.5417 16.544H27.6817L27.7657 17.272L27.6817 18H27.5417ZM27.5472 16.544H30.3472C30.8885 16.544 31.2899 16.5253 31.5512 16.488C31.8219 16.4507 32.0085 16.3807 32.1112 16.278C32.2139 16.166 32.2652 16.0027 32.2652 15.788C32.2652 15.676 32.2605 15.5873 32.2512 15.522C31.6819 15.5873 31.1312 15.62 30.5992 15.62C29.8899 15.62 29.3252 15.41 28.9052 14.99C28.4852 14.57 28.2752 14.0007 28.2752 13.282C28.2752 12.7687 28.3685 12.2973 28.5552 11.868C28.7419 11.4293 29.0219 11.0793 29.3952 10.818C29.7685 10.5567 30.2165 10.426 30.7392 10.426C31.4485 10.426 32.0365 10.6873 32.5032 11.21C32.9792 11.7327 33.2545 12.4233 33.3292 13.282L33.4832 15.368C33.5019 15.6107 33.5112 15.7787 33.5112 15.872C33.5112 16.3853 33.4132 16.796 33.2172 17.104C33.0305 17.4027 32.7039 17.6267 32.2372 17.776C31.7799 17.9253 31.1405 18 30.3192 18H27.5472V16.544ZM29.4512 13.156C29.4512 13.5013 29.5492 13.7767 29.7452 13.982C29.9505 14.178 30.2352 14.276 30.5992 14.276C31.1965 14.276 31.7099 14.2387 32.1392 14.164L32.0692 13.394C32.0039 12.8713 31.8499 12.4653 31.6072 12.176C31.3645 11.8773 31.0565 11.728 30.6832 11.728C30.3005 11.728 29.9972 11.868 29.7732 12.148C29.5585 12.428 29.4512 12.764 29.4512 13.156ZM29.9272 7.514H31.4812V9.054H29.9272V7.514Z" fill="#404040"/>
<g clip-path="url(#clip0_1384_149)">
<path d="M49 4.625C44.9062 4.625 41.4375 7.21875 40.1562 10.875H57.8438C56.5625 7.21875 53.0938 4.625 49 4.625Z" fill="#83BF4F"/>
<path d="M49 23.375C53.0938 23.375 56.5625 20.7812 57.8438 17.125H40.1562C41.4375 20.7812 44.9062 23.375 49 23.375Z" fill="#ED4C5C"/>
<path d="M40.1562 10.875C39.8125 11.8438 39.625 12.9062 39.625 14C39.625 15.0938 39.8125 16.1562 40.1562 17.125H57.8438C58.1875 16.1562 58.375 15.0938 58.375 14C58.375 12.9062 58.1875 11.8438 57.8438 10.875H40.1562Z" fill="#F9F9F9"/>
<path d="M57.5625 17.8438L57.4687 18.0313H57.5625V17.8438ZM40.5313 18.0313L40.4375 17.8438V18.0313H40.5313ZM40.75 9.875H40.5937C40.5625 9.90625 40.5313 9.9375 40.5313 9.96875H40.75V9.875Z" fill="white"/>
<path d="M40.75 10.5625V10.4688H40.4375V10.2812H40.9062V10.5625H41.5938V9.84375H41.5V10.4375H41.3125V9.84375H41.2187V10.4375H41.0312V9.84375H40.9375V10.1562H40.4375C40.4062 10.2188 40.375 10.3125 40.3438 10.375V10.5625H40.75ZM40.75 18.0312H40.5312C40.5312 18.0625 40.5625 18.0938 40.5937 18.125H40.7812L40.75 18.0312ZM40.4375 17.8437H40.9062V18.125H41.5938V17.4062H41.5V18H41.3125V17.4062H41.2187V18H41.0312V17.4062H40.9375V17.7188H40.4062C40.4062 17.7813 40.4375 17.8125 40.4375 17.8437Z" fill="white"/>
<path d="M40.75 17.4375H40.2812C40.2812 17.4688 40.3125 17.5 40.3125 17.5312H40.75V17.4375ZM43.25 10.5625H43.6875V10.4688H43.375V10.2812H43.8438V10.5625H44.5312V9.84375H44.4375V10.4688H44.25V9.84375H44.125V10.4688H43.9375V9.84375H43.8438V10.1562H43.25V10.5625ZM43.0625 10.5625V10.1562H42.6562V10.2812H42.9688V10.4688H42.5V10.1562H41.8125V10.5937H41.9063V10.2812H42.375V10.5625H43.0625Z" fill="white"/>
<path d="M42.0625 10.4688H42.2188V10.5625H42.0625V10.4688ZM41.7812 9.875H43.6875V9.96875H41.7812V9.875ZM42.6563 17.8438H42.9688V18.0313H42.5V17.7188H41.8125V18.1562H41.9063V17.8438H42.375V18.125H43.0625V17.7188H42.6563V17.8438Z" fill="white"/>
<path d="M42.0625 18.0313H42.2188V18.125H42.0625V18.0313ZM41.7812 17.4375H43.6875V17.5312H41.7812V17.4375Z" fill="white"/>
<path d="M44.4375 18.0312H44.25V17.4062H44.125V18.0312H43.9375V17.4062H43.8437V17.7188H43.25V18.125H43.6875V18.0312H43.375V17.8437H43.8437V18.125H44.5313V17.4062H44.4375V18.0312ZM46.1875 10.5625H46.5937V10.4688H46.2812V10.2812H46.75V10.5625H47.4375V9.84375H47.3438V10.4688H47.1562V9.84375H47.0625V10.4688H46.875V9.84375H46.75V10.1562H46.1875V10.5625ZM46 10.5625V10.1562H45.5625V10.2812H45.875V10.4688H45.4062V10.1562H44.7187V10.5937H44.8125V10.2812H45.3125V10.5625H46Z" fill="white"/>
<path d="M44.6875 9.875H46.5937V9.96875H44.6875V9.875ZM45 10.4688H45.1562V10.5625H45V10.4688ZM47.3438 18.0312H47.1562V17.4062H47.0625V18.0312H46.875V17.4062H46.75V17.7188H46.1875V18.125H46.5937V18.0312H46.2812V17.8437H46.75V18.125H47.4375V17.4062H47.3438V18.0312ZM45 18.0312H45.1562V18.125H45V18.0312Z" fill="white"/>
<path d="M44.6875 17.4375H46.5937V17.5312H44.6875V17.4375ZM45.5625 17.8438H45.875V18.0313H45.4062V17.7188H44.7187V18.1562H44.8125V17.8438H45.3125V18.125H46V17.7188H45.5625V17.8438ZM48.9062 10.5625V10.1563H48.5V10.2813H48.8125V10.4688H48.3125V10.1563H47.625V10.5938H47.75V10.2813H48.2187V10.5625H48.9062ZM47.625 9.875H49.5312V9.96875H47.625V9.875Z" fill="white"/>
<path d="M47.9062 10.4688H48.0625V10.5625H47.9062V10.4688ZM49.0937 10.5625H49.5V10.4688H49.1875V10.2812H49.6875V10.5625H50.375V9.84375H50.25V10.4688H50.0625V9.84375H49.9687V10.4688H49.7812V9.84375H49.6875V10.1563H49.0937V10.5625ZM47.625 17.4375H49.5313V17.5313H47.625V17.4375ZM48.5 17.8438H48.8125V18.0313H48.3125V17.7188H47.625V18.1562H47.75V17.8438H48.2187V18.125H48.9063V17.7188H48.5V17.8438Z" fill="white"/>
<path d="M47.9062 18.0312H48.0625V18.125H47.9062V18.0312ZM50.25 18.0312H50.0625V17.4062H49.9687V18.0312H49.7812V17.4062H49.6875V17.7188H49.0937V18.125H49.5V18.0312H49.1875V17.8437H49.6875V18.125H50.375V17.4062H50.25V18.0312ZM50.8125 10.4688H50.9687V10.5625H50.8125V10.4688ZM50.5313 9.875H52.4375V9.96875H50.5313V9.875Z" fill="white"/>
<path d="M52 10.5625H52.4375V10.4688H52.125V10.2812H52.5937V10.5625H53.2812V9.84375H53.1875V10.4688H53V9.84375H52.875V10.4688H52.6875V9.84375H52.5937V10.1562H52V10.5625ZM51.8125 10.5625V10.1562H51.4062V10.2812H51.7187V10.4688H51.25V10.1562H50.5625V10.5937H50.6562V10.2812H51.125V10.5625H51.8125ZM50.5312 17.4375H52.4375V17.5312H50.5312V17.4375Z" fill="white"/>
<path d="M53.1875 18.0312H53V17.4062H52.875V18.0312H52.6875V17.4062H52.5938V17.7188H52V18.125H52.4375V18.0312H52.125V17.8437H52.5938V18.125H53.2813V17.4062H53.1875V18.0312ZM51.4063 17.8437H51.7188V18.0312H51.25V17.7188H50.5625V18.1562H50.6562V17.8437H51.125V18.125H51.8125V17.7188H51.4063V17.8437Z" fill="white"/>
<path d="M50.8125 18.0312H50.9688V18.125H50.8125V18.0312ZM54.75 10.5625V10.1562H54.3125V10.2812H54.625V10.4688H54.1563V10.1562H53.4688V10.5937H53.5625V10.2812H54.0625V10.5625H54.75Z" fill="white"/>
<path d="M53.75 10.4688H53.9062V10.5625H53.75V10.4688ZM53.4375 9.875H55.3437V9.96875H53.4375V9.875Z" fill="white"/>
<path d="M54.9375 10.5625H55.3437V10.4688H55.0312V10.2812H55.5V10.5625H56.1875V9.84375H56.0938V10.4688H55.9062V9.84375H55.8125V10.4688H55.625V9.84375H55.5V10.1562H54.9375V10.5625ZM53.75 18.0312H53.9062V18.125H53.75V18.0312Z" fill="white"/>
<path d="M54.3125 17.8437H54.625V18.0313H54.1562V17.7188H53.4687V18.1562H53.5625V17.8437H54.0625V18.125H54.75V17.7188H54.3125V17.8437ZM53.4375 17.4375H55.3437V17.5312H53.4375V17.4375Z" fill="white"/>
<path d="M56.0938 18.0312H55.9062V17.4062H55.8125V18.0312H55.625V17.4062H55.5V17.7188H54.9375V18.125H55.3437V18.0312H55.0312V17.8437H55.5V18.125H56.1875V17.4062H56.0938V18.0312ZM56.375 9.96875H57.4687C57.4375 9.9375 57.4375 9.90625 57.4063 9.875H56.3438C56.375 9.875 56.375 9.96875 56.375 9.96875ZM57.25 10.2813H57.5625V10.4688H57.0938V10.1875H56.4063V10.5938H56.5V10.2813H56.9688V10.5625H57.6563V10.4063C57.625 10.3438 57.5938 10.25 57.5625 10.1875H57.25V10.2813Z" fill="white"/>
<path d="M56.6563 10.4688H56.8125V10.5625H56.6563V10.4688ZM56.6563 18.0312H56.8125V18.125H56.6563V18.0312ZM56.375 17.4375V17.5312H57.6875C57.6875 17.5 57.7188 17.4688 57.7188 17.4375H56.375ZM57.25 17.8437H57.5625C57.5938 17.8125 57.5938 17.7813 57.625 17.7188H57.25V17.8437Z" fill="white"/>
<path d="M57.0625 18.0313V17.75H56.375V18.1562H56.5V17.8437H56.9688V18.125H57.4063C57.4375 18.0938 57.4375 18.0625 57.4688 18.0313H57.0625Z" fill="white"/>
<path d="M50.4063 14.5938C50.6875 13.7813 50.4063 12.875 49.7813 12.3125C50.5 13.375 50.2188 14.7813 49.2188 15.5313L49.2813 13.7812V12.4062C49.1563 12.3437 49.0625 12.2813 49 12.1875C48.9375 12.2813 48.8438 12.375 48.7188 12.4062V13.7812L48.7813 15.5313C47.75 14.7813 47.5 13.375 48.2188 12.3125C47.5625 12.875 47.3125 13.7813 47.5938 14.5938C47.7813 15.1563 48.1563 15.5625 48.625 15.8125C48.3438 15.9062 48.0313 15.9688 47.7188 15.9688C48.0938 16.0938 48.4688 16.0938 48.8125 16.0313V16.0938L49 16.3438L49.1875 16.0938V16.0313C49.5313 16.0938 49.9063 16.0938 50.2813 15.9688C49.9688 15.9688 49.6563 15.9375 49.375 15.8125C49.8438 15.5625 50.2188 15.125 50.4063 14.5938Z" fill="#ED4C5C"/>
<path d="M51.0937 13.0937C50.8437 12.6875 50.4375 12.375 49.9687 12.25C51 13.0312 51.2187 14.5 50.4375 15.5313C51.3125 15.0625 51.5937 13.9687 51.0937 13.0937ZM48 12.25C47.5312 12.375 47.125 12.6562 46.875 13.0937C46.375 13.9375 46.6875 15.0313 47.5312 15.5313C46.7812 14.5 46.9687 13.0312 48 12.25ZM48.5312 12.125C48.6875 12.2187 48.9062 12.1875 49 12.0312C49.0937 12.1875 49.3125 12.2187 49.4687 12.125C49.5937 12.0312 49.6562 11.875 49.5937 11.7188C49.5625 11.9062 49.4062 12 49.2187 11.9687C49.125 11.9375 49.0625 11.9062 49 11.8125C48.9687 11.9062 48.875 11.9375 48.7812 11.9687C48.5937 12 48.4375 11.875 48.4062 11.7188C48.3437 11.875 48.4062 12.0312 48.5312 12.125Z" fill="#ED4C5C"/>
</g>
<defs>
<clipPath id="clip0_1384_149">
<rect width="20" height="20" fill="white" transform="translate(39 4)"/>
</clipPath>
</defs>
</svg>
