<svg width="22" height="14" viewBox="0 0 22 14" fill="none" xmlns="http://www.w3.org/2000/svg">
<rect width="22" height="14" fill="#1E1E1E"/>
<g id="Blog Hub" clip-path="url(#clip0_1747_4513)">
<rect width="1366" height="3172" transform="translate(-1261 -187)" fill="#FAFAFA"/>
<g id="Frame 1">
<g id="title and subtitle">
<g id="page title">
<g id="Hicon / Outline / Right 1">
<g id="Right 1">
<path id="Vector" d="M16.2826 0.545199C15.9393 0.205018 15.3853 0.20749 15.0452 0.55072C14.705 0.89395 14.7074 1.44796 15.0507 1.78814L17.1075 3.82667C17.9422 4.654 18.5148 5.22338 18.9023 5.70583C19.0282 5.86262 19.1264 6.00064 19.2027 6.12501L1.66663 6.12501C1.18338 6.12501 0.791626 6.51676 0.791626 7.00001C0.791626 7.48326 1.18338 7.87501 1.66663 7.87501L19.2027 7.87501C19.1264 7.99937 19.0282 8.1374 18.9023 8.29418C18.5148 8.77663 17.9422 9.34601 17.1075 10.1733L15.0507 12.2119C14.7074 12.552 14.705 13.1061 15.0452 13.4493C15.3853 13.7925 15.9393 13.795 16.2826 13.4548L18.3764 11.3796C19.1651 10.598 19.8096 9.95915 20.2667 9.38997C20.7421 8.79809 21.0862 8.19733 21.1781 7.47619C21.1982 7.3181 21.2083 7.15905 21.2083 7.00001C21.2083 6.84096 21.1982 6.68192 21.1781 6.52382C21.0862 5.80268 20.7421 5.20192 20.2667 4.61004C19.8096 4.04085 19.1651 3.40205 18.3764 2.62044L16.2826 0.545199Z" fill="#404040"/>
</g>
</g>
</g>
</g>
</g>
</g>
<defs>
<clipPath id="clip0_1747_4513">
<rect width="1366" height="3172" fill="white" transform="translate(-1261 -187)"/>
</clipPath>
</defs>
</svg>
