<svg width="72" height="55" viewBox="0 0 72 55" fill="none" xmlns="http://www.w3.org/2000/svg">
<g id="RTL arrow" clip-path="url(#clip0_1177_5357)">
<path id="Arrow 06" d="M60.987 8.13572C61.64 10.3288 62.3155 12.443 63.0315 14.8633C64.2745 13.9479 64.5845 12.7145 64.3775 11.6479C63.7565 8.44786 63.0558 5.22794 62.071 2.10611C61.5156 0.317997 59.8552 0.156376 58.5563 1.56526C56.3555 3.89028 54.2914 6.33408 52.1477 8.75795C52.0229 8.89589 51.847 9.06333 51.853 9.19169C51.7972 9.68518 51.8722 10.1691 51.8961 10.6825C52.3394 10.6242 52.8969 10.7637 53.175 10.5372C54.1625 9.76937 55.0419 8.93216 55.9498 8.14437C56.4549 7.72097 56.8803 7.27765 57.8406 7.0527C57.6209 7.97035 57.4298 8.93742 57.21 9.85506C51.8389 28.6401 35.0218 41.6445 15.3011 42.4204C12.7599 42.5037 10.2579 42.3007 7.71081 42.2556C6.81819 42.2438 5.9541 42.2814 5.06147 42.2695C4.96523 42.4569 4.94863 42.6642 4.85239 42.8515C5.26252 43.2078 5.65605 43.7714 6.18498 43.8614C7.90849 44.2503 9.632 44.6391 11.4232 44.7911C29.2331 46.3704 47.0635 36.5374 55.8 20.1587C57.4646 17.0229 58.5657 13.6194 59.8832 10.3546C60.166 9.66412 60.318 8.98327 60.5211 8.27291C60.5948 8.16447 60.7766 8.12538 60.987 8.13572Z" fill="#0545A6"/>
</g>
<defs>
<clipPath id="clip0_1177_5357">
<rect width="70" height="22" fill="white" transform="matrix(-0.866025 0.5 0.5 0.866025 60.9411 0)"/>
</clipPath>
</defs>
</svg>
