<svg xmlns="http://www.w3.org/2000/svg" width="16" height="16" viewBox="0 0 16 16" fill="none">
  <path d="M13.197 11.4697C12.9041 11.1768 12.4293 11.1768 12.1364 11.4697C11.8435 11.7626 11.8435 12.2375 12.1364 12.5303L13.197 11.4697ZM14.803 15.197C15.0958 15.4899 15.5707 15.4899 15.8636 15.197C16.1565 14.9041 16.1565 14.4292 15.8636 14.1363L14.803 15.197ZM6.2625 3.44843C6.67161 3.38363 6.95074 2.99945 6.88594 2.59034C6.82114 2.18122 6.43696 1.9021 6.02785 1.9669L6.2625 3.44843ZM2.63356 5.36118C2.56877 5.7703 2.84789 6.15448 3.257 6.21927C3.66612 6.28407 4.0503 6.00495 4.11509 5.59583L2.63356 5.36118ZM12.1364 12.5303L14.803 15.197L15.8636 14.1363L13.197 11.4697L12.1364 12.5303ZM7.33331 11.9166C4.43382 11.9166 2.08331 9.56612 2.08331 6.66663H0.583313C0.583313 10.3945 3.60539 13.4166 7.33331 13.4166V11.9166ZM12.5833 6.66663C12.5833 9.56612 10.2328 11.9166 7.33331 11.9166V13.4166C11.0612 13.4166 14.0833 10.3945 14.0833 6.66663H12.5833ZM7.33331 1.41663C10.2328 1.41663 12.5833 3.76713 12.5833 6.66663H14.0833C14.0833 2.9387 11.0612 -0.083374 7.33331 -0.083374V1.41663ZM7.33331 -0.083374C3.60539 -0.083374 0.583313 2.9387 0.583313 6.66663H2.08331C2.08331 3.76713 4.43382 1.41663 7.33331 1.41663V-0.083374ZM6.02785 1.9669C4.28062 2.24363 2.9103 3.61395 2.63356 5.36118L4.11509 5.59583C4.29017 4.49044 5.15711 3.6235 6.2625 3.44843L6.02785 1.9669Z" fill="#737373"/>
</svg>