<svg width="32" height="32" viewBox="0 0 32 32" fill="none" xmlns="http://www.w3.org/2000/svg">
<rect width="32" height="32" fill="white"/>
<path d="M11.5692 4.58603C11.5451 3.59704 12.4038 2.84445 13.306 2.84445C14.131 2.84445 15.0283 3.50538 15.0331 4.5812C15.0379 5.54607 14.2564 6.3276 13.2915 6.31796C12.1482 6.30348 11.5306 5.33862 11.5692 4.58603Z" fill="#F26F24"/>
<path d="M8.09573 27.598C8.07161 26.609 8.93034 25.8564 9.83248 25.8564C10.6574 25.8564 11.5548 26.5173 11.5596 27.5932C11.5644 28.558 10.7829 29.3396 9.81801 29.3299C8.67465 29.3154 8.05714 28.3506 8.09573 27.598Z" fill="#23356D"/>
<path d="M18.5162 27.598C18.4921 26.609 19.3509 25.8564 20.253 25.8564C21.078 25.8564 21.9753 26.5173 21.9801 27.5932C21.9849 28.558 21.2034 29.3396 20.2385 29.3299C19.0952 29.3154 18.4777 28.3506 18.5162 27.598Z" fill="#23356D"/>
<path d="M21.9849 27.598C21.9608 26.609 22.8195 25.8564 23.7217 25.8564C24.5466 25.8564 25.444 26.5173 25.4488 27.5932C25.4536 28.558 24.6721 29.3396 23.7072 29.3299C22.5638 29.3154 21.9463 28.3506 21.9849 27.598Z" fill="#23356D"/>
<path d="M23.7265 17.6068V18.8756C23.7265 19.8501 22.9305 20.6654 21.956 20.6461C21.0104 20.6269 20.253 19.8598 20.253 18.9094V17.6068V12.4448C20.253 12.4159 20.2337 12.3966 20.2047 12.3966H16.8277C16.7988 12.3966 16.7795 12.4159 16.7795 12.4448V17.6068V18.8515C16.7795 21.7316 19.0903 24.11 21.9704 24.1197C24.8554 24.1293 27.2 21.7943 27.2 18.9094V17.6068H23.7265Z" fill="#23356D"/>
<path d="M23.7265 16.7385V8.10296C23.7265 8.07402 23.7458 8.05472 23.7747 8.05472H27.1518C27.1807 8.05472 27.2 8.07402 27.2 8.10296V13.265C27.2 15.1851 25.6466 16.7385 23.7265 16.7385Z" fill="#F26F24"/>
<path d="M27.2 2.84445H20.253C18.3329 2.84445 16.7795 4.39788 16.7795 6.31796H27.2V2.84445Z" fill="#F26F24"/>
<path d="M15.0427 20.6461V24.1197H8.09573C6.17565 24.1197 4.62222 22.5662 4.62222 20.6461H15.0427Z" fill="#23356D"/>
<path d="M11.5692 8.05471V8.79283V9.79147V10.2257V11.5282V14.5338C11.5692 15.5083 10.7732 16.3236 9.79871 16.3043C8.85314 16.285 8.09573 15.5179 8.09573 14.5675V13.6992V11.9624V10.2257V9.79147V6.31796H4.62222V9.79147V10.2257V11.9624V13.6992V14.5096C4.62222 17.3898 6.93307 19.7681 9.81318 19.7778C12.6981 19.7874 15.0427 17.4525 15.0427 14.5675V11.5765C15.0427 11.5475 15.062 11.5282 15.091 11.5282H16.847C18.7285 11.5282 20.253 10.0037 20.253 8.12225V8.05471H11.5692Z" fill="#F26F24"/>
</svg>
